<svg width="188" height="196" viewBox="0 0 188 196" fill="none" xmlns="http://www.w3.org/2000/svg">
<path d="M123.848 2.04H125.456V13.044H123.848V2.04ZM125.072 6.264H127.724V7.584H125.072V6.264ZM124.748 18.812H127.412V20.132H124.748V18.812ZM124.748 21.956H127.412V23.264H124.748V21.956ZM123.584 16.04H125.168V27.032H123.584V16.04ZM125.3 30.028H126.896V41.032H125.3V30.028ZM122.984 34.144H125.612V35.452H122.984V34.144ZM125.336 44.052H126.932V55.056H125.336V44.052ZM122.96 46.68H125.588V48H122.96V46.68ZM122.96 49.848H125.588V51.144H122.96V49.848ZM119.984 64.58H130.016V65.864H119.984V64.58ZM124.196 60.308H125.78V64.952H124.196V60.308ZM120.008 78.892H130.04V80.176H120.008V78.892ZM122.264 74.404H123.848V79.336H122.264V74.404ZM126.212 74.404H127.796V79.324H126.212V74.404ZM120.008 89.592H130.04V90.876H120.008V89.592ZM124.22 90.564H125.816V95.4H124.22V90.564ZM119.984 103.556H130.016V104.84H119.984V103.556ZM122.288 104.564H123.884V109.4H122.288V104.564ZM126.044 104.564H127.64V109.4H126.044V104.564ZM119.984 118.648H130.016V119.944H119.984V118.648ZM124.244 128.004H125.84V139.008H124.244V128.004ZM125.804 142.016H127.328V153.02H125.804V142.016ZM123.98 146.18H126.32V147.476H123.98V146.18ZM122.9 142.196H124.388V152.6H122.9V142.196ZM126.176 156.028H127.688V167.032H126.176V156.028ZM122.204 160.156H124.448V161.476H122.204V160.156ZM123.8 156.22H125.288V166.672H123.8V156.22Z" fill="white"/>
<path d="M140.332 7.524C140.332 7.308 140.388 7.108 140.5 6.924C140.62 6.732 140.772 6.58 140.956 6.468C141.148 6.356 141.348 6.3 141.556 6.3C141.78 6.3 141.984 6.356 142.168 6.468C142.352 6.58 142.5 6.732 142.612 6.924C142.724 7.108 142.78 7.308 142.78 7.524C142.78 7.852 142.66 8.136 142.42 8.376C142.18 8.616 141.892 8.736 141.556 8.736C141.348 8.736 141.148 8.68 140.956 8.568C140.772 8.456 140.62 8.308 140.5 8.124C140.388 7.94 140.332 7.74 140.332 7.524ZM140.332 21.524C140.332 21.308 140.388 21.108 140.5 20.924C140.62 20.732 140.772 20.58 140.956 20.468C141.148 20.356 141.348 20.3 141.556 20.3C141.78 20.3 141.984 20.356 142.168 20.468C142.352 20.58 142.5 20.732 142.612 20.924C142.724 21.108 142.78 21.308 142.78 21.524C142.78 21.852 142.66 22.136 142.42 22.376C142.18 22.616 141.892 22.736 141.556 22.736C141.348 22.736 141.148 22.68 140.956 22.568C140.772 22.456 140.62 22.308 140.5 22.124C140.388 21.94 140.332 21.74 140.332 21.524ZM153.771 21.524C153.771 21.308 153.827 21.108 153.939 20.924C154.059 20.732 154.211 20.58 154.395 20.468C154.587 20.356 154.787 20.3 154.995 20.3C155.219 20.3 155.423 20.356 155.607 20.468C155.791 20.58 155.939 20.732 156.051 20.924C156.163 21.108 156.219 21.308 156.219 21.524C156.219 21.852 156.099 22.136 155.859 22.376C155.619 22.616 155.331 22.736 154.995 22.736C154.787 22.736 154.587 22.68 154.395 22.568C154.211 22.456 154.059 22.308 153.939 22.124C153.827 21.94 153.771 21.74 153.771 21.524ZM136.432 34.492H146.62V36.052H136.432V34.492ZM140.332 49.524C140.332 49.308 140.388 49.108 140.5 48.924C140.62 48.732 140.772 48.58 140.956 48.468C141.148 48.356 141.348 48.3 141.556 48.3C141.78 48.3 141.984 48.356 142.168 48.468C142.352 48.58 142.5 48.732 142.612 48.924C142.724 49.108 142.78 49.308 142.78 49.524C142.78 49.852 142.66 50.136 142.42 50.376C142.18 50.616 141.892 50.736 141.556 50.736C141.348 50.736 141.148 50.68 140.956 50.568C140.772 50.456 140.62 50.308 140.5 50.124C140.388 49.94 140.332 49.74 140.332 49.524ZM153.771 49.524C153.771 49.308 153.827 49.108 153.939 48.924C154.059 48.732 154.211 48.58 154.395 48.468C154.587 48.356 154.787 48.3 154.995 48.3C155.219 48.3 155.423 48.356 155.607 48.468C155.791 48.58 155.939 48.732 156.051 48.924C156.163 49.108 156.219 49.308 156.219 49.524C156.219 49.852 156.099 50.136 155.859 50.376C155.619 50.616 155.331 50.736 154.995 50.736C154.787 50.736 154.587 50.68 154.395 50.568C154.211 50.456 154.059 50.308 153.939 50.124C153.827 49.94 153.771 49.74 153.771 49.524ZM167.21 49.524C167.21 49.308 167.266 49.108 167.378 48.924C167.498 48.732 167.65 48.58 167.834 48.468C168.026 48.356 168.226 48.3 168.434 48.3C168.658 48.3 168.862 48.356 169.046 48.468C169.23 48.58 169.378 48.732 169.49 48.924C169.602 49.108 169.658 49.308 169.658 49.524C169.658 49.852 169.538 50.136 169.298 50.376C169.058 50.616 168.77 50.736 168.434 50.736C168.226 50.736 168.026 50.68 167.834 50.568C167.65 50.456 167.498 50.308 167.378 50.124C167.266 49.94 167.21 49.74 167.21 49.524ZM140.332 63.524C140.332 63.308 140.388 63.108 140.5 62.924C140.62 62.732 140.772 62.58 140.956 62.468C141.148 62.356 141.348 62.3 141.556 62.3C141.78 62.3 141.984 62.356 142.168 62.468C142.352 62.58 142.5 62.732 142.612 62.924C142.724 63.108 142.78 63.308 142.78 63.524C142.78 63.852 142.66 64.136 142.42 64.376C142.18 64.616 141.892 64.736 141.556 64.736C141.348 64.736 141.148 64.68 140.956 64.568C140.772 64.456 140.62 64.308 140.5 64.124C140.388 63.94 140.332 63.74 140.332 63.524ZM149.871 62.492H160.059V64.052H149.871V62.492ZM136.432 76.492H146.62V78.052H136.432V76.492ZM153.771 77.524C153.771 77.308 153.827 77.108 153.939 76.924C154.059 76.732 154.211 76.58 154.395 76.468C154.587 76.356 154.787 76.3 154.995 76.3C155.219 76.3 155.423 76.356 155.607 76.468C155.791 76.58 155.939 76.732 156.051 76.924C156.163 77.108 156.219 77.308 156.219 77.524C156.219 77.852 156.099 78.136 155.859 78.376C155.619 78.616 155.331 78.736 154.995 78.736C154.787 78.736 154.587 78.68 154.395 78.568C154.211 78.456 154.059 78.308 153.939 78.124C153.827 77.94 153.771 77.74 153.771 77.524ZM140.332 91.524C140.332 91.308 140.388 91.108 140.5 90.924C140.62 90.732 140.772 90.58 140.956 90.468C141.148 90.356 141.348 90.3 141.556 90.3C141.78 90.3 141.984 90.356 142.168 90.468C142.352 90.58 142.5 90.732 142.612 90.924C142.724 91.108 142.78 91.308 142.78 91.524C142.78 91.852 142.66 92.136 142.42 92.376C142.18 92.616 141.892 92.736 141.556 92.736C141.348 92.736 141.148 92.68 140.956 92.568C140.772 92.456 140.62 92.308 140.5 92.124C140.388 91.94 140.332 91.74 140.332 91.524ZM153.771 91.524C153.771 91.308 153.827 91.108 153.939 90.924C154.059 90.732 154.211 90.58 154.395 90.468C154.587 90.356 154.787 90.3 154.995 90.3C155.219 90.3 155.423 90.356 155.607 90.468C155.791 90.58 155.939 90.732 156.051 90.924C156.163 91.108 156.219 91.308 156.219 91.524C156.219 91.852 156.099 92.136 155.859 92.376C155.619 92.616 155.331 92.736 154.995 92.736C154.787 92.736 154.587 92.68 154.395 92.568C154.211 92.456 154.059 92.308 153.939 92.124C153.827 91.94 153.771 91.74 153.771 91.524ZM167.21 91.524C167.21 91.308 167.266 91.108 167.378 90.924C167.498 90.732 167.65 90.58 167.834 90.468C168.026 90.356 168.226 90.3 168.434 90.3C168.658 90.3 168.862 90.356 169.046 90.468C169.23 90.58 169.378 90.732 169.49 90.924C169.602 91.108 169.658 91.308 169.658 91.524C169.658 91.852 169.538 92.136 169.298 92.376C169.058 92.616 168.77 92.736 168.434 92.736C168.226 92.736 168.026 92.68 167.834 92.568C167.65 92.456 167.498 92.308 167.378 92.124C167.266 91.94 167.21 91.74 167.21 91.524ZM180.649 91.524C180.649 91.308 180.705 91.108 180.817 90.924C180.937 90.732 181.089 90.58 181.273 90.468C181.465 90.356 181.665 90.3 181.873 90.3C182.097 90.3 182.301 90.356 182.485 90.468C182.669 90.58 182.817 90.732 182.929 90.924C183.041 91.108 183.097 91.308 183.097 91.524C183.097 91.852 182.977 92.136 182.737 92.376C182.497 92.616 182.209 92.736 181.873 92.736C181.665 92.736 181.465 92.68 181.273 92.568C181.089 92.456 180.937 92.308 180.817 92.124C180.705 91.94 180.649 91.74 180.649 91.524ZM140.332 105.524C140.332 105.308 140.388 105.108 140.5 104.924C140.62 104.732 140.772 104.58 140.956 104.468C141.148 104.356 141.348 104.3 141.556 104.3C141.78 104.3 141.984 104.356 142.168 104.468C142.352 104.58 142.5 104.732 142.612 104.924C142.724 105.108 142.78 105.308 142.78 105.524C142.78 105.852 142.66 106.136 142.42 106.376C142.18 106.616 141.892 106.736 141.556 106.736C141.348 106.736 141.148 106.68 140.956 106.568C140.772 106.456 140.62 106.308 140.5 106.124C140.388 105.94 140.332 105.74 140.332 105.524ZM149.871 104.492H160.059V106.052H149.871V104.492ZM167.21 105.524C167.21 105.308 167.266 105.108 167.378 104.924C167.498 104.732 167.65 104.58 167.834 104.468C168.026 104.356 168.226 104.3 168.434 104.3C168.658 104.3 168.862 104.356 169.046 104.468C169.23 104.58 169.378 104.732 169.49 104.924C169.602 105.108 169.658 105.308 169.658 105.524C169.658 105.852 169.538 106.136 169.298 106.376C169.058 106.616 168.77 106.736 168.434 106.736C168.226 106.736 168.026 106.68 167.834 106.568C167.65 106.456 167.498 106.308 167.378 106.124C167.266 105.94 167.21 105.74 167.21 105.524ZM136.432 118.492H146.62V120.052H136.432V118.492ZM153.771 119.524C153.771 119.308 153.827 119.108 153.939 118.924C154.059 118.732 154.211 118.58 154.395 118.468C154.587 118.356 154.787 118.3 154.995 118.3C155.219 118.3 155.423 118.356 155.607 118.468C155.791 118.58 155.939 118.732 156.051 118.924C156.163 119.108 156.219 119.308 156.219 119.524C156.219 119.852 156.099 120.136 155.859 120.376C155.619 120.616 155.331 120.736 154.995 120.736C154.787 120.736 154.587 120.68 154.395 120.568C154.211 120.456 154.059 120.308 153.939 120.124C153.827 119.94 153.771 119.74 153.771 119.524ZM167.21 119.524C167.21 119.308 167.266 119.108 167.378 118.924C167.498 118.732 167.65 118.58 167.834 118.468C168.026 118.356 168.226 118.3 168.434 118.3C168.658 118.3 168.862 118.356 169.046 118.468C169.23 118.58 169.378 118.732 169.49 118.924C169.602 119.108 169.658 119.308 169.658 119.524C169.658 119.852 169.538 120.136 169.298 120.376C169.058 120.616 168.77 120.736 168.434 120.736C168.226 120.736 168.026 120.68 167.834 120.568C167.65 120.456 167.498 120.308 167.378 120.124C167.266 119.94 167.21 119.74 167.21 119.524ZM140.332 133.524C140.332 133.308 140.388 133.108 140.5 132.924C140.62 132.732 140.772 132.58 140.956 132.468C141.148 132.356 141.348 132.3 141.556 132.3C141.78 132.3 141.984 132.356 142.168 132.468C142.352 132.58 142.5 132.732 142.612 132.924C142.724 133.108 142.78 133.308 142.78 133.524C142.78 133.852 142.66 134.136 142.42 134.376C142.18 134.616 141.892 134.736 141.556 134.736C141.348 134.736 141.148 134.68 140.956 134.568C140.772 134.456 140.62 134.308 140.5 134.124C140.388 133.94 140.332 133.74 140.332 133.524ZM153.771 133.524C153.771 133.308 153.827 133.108 153.939 132.924C154.059 132.732 154.211 132.58 154.395 132.468C154.587 132.356 154.787 132.3 154.995 132.3C155.219 132.3 155.423 132.356 155.607 132.468C155.791 132.58 155.939 132.732 156.051 132.924C156.163 133.108 156.219 133.308 156.219 133.524C156.219 133.852 156.099 134.136 155.859 134.376C155.619 134.616 155.331 134.736 154.995 134.736C154.787 134.736 154.587 134.68 154.395 134.568C154.211 134.456 154.059 134.308 153.939 134.124C153.827 133.94 153.771 133.74 153.771 133.524ZM163.31 132.492H173.498V134.052H163.31V132.492ZM136.432 146.492H146.62V148.052H136.432V146.492ZM149.871 146.492H160.059V148.052H149.871V146.492ZM167.21 147.524C167.21 147.308 167.266 147.108 167.378 146.924C167.498 146.732 167.65 146.58 167.834 146.468C168.026 146.356 168.226 146.3 168.434 146.3C168.658 146.3 168.862 146.356 169.046 146.468C169.23 146.58 169.378 146.732 169.49 146.924C169.602 147.108 169.658 147.308 169.658 147.524C169.658 147.852 169.538 148.136 169.298 148.376C169.058 148.616 168.77 148.736 168.434 148.736C168.226 148.736 168.026 148.68 167.834 148.568C167.65 148.456 167.498 148.308 167.378 148.124C167.266 147.94 167.21 147.74 167.21 147.524ZM176.749 146.492H186.937V148.052H176.749V146.492ZM136.432 160.492H146.62V162.052H136.432V160.492ZM153.771 161.524C153.771 161.308 153.827 161.108 153.939 160.924C154.059 160.732 154.211 160.58 154.395 160.468C154.587 160.356 154.787 160.3 154.995 160.3C155.219 160.3 155.423 160.356 155.607 160.468C155.791 160.58 155.939 160.732 156.051 160.924C156.163 161.108 156.219 161.308 156.219 161.524C156.219 161.852 156.099 162.136 155.859 162.376C155.619 162.616 155.331 162.736 154.995 162.736C154.787 162.736 154.587 162.68 154.395 162.568C154.211 162.456 154.059 162.308 153.939 162.124C153.827 161.94 153.771 161.74 153.771 161.524ZM163.31 160.492H173.498V162.052H163.31V160.492ZM176.749 160.492H186.937V162.052H176.749V160.492Z" fill="white"/>
<path d="M2.48447 4.452H9.51647V10.44H7.94447V5.724H2.48447V4.452ZM2.48447 23H9.63647V24.26H2.48447V23ZM2.48447 18.452H4.09247V23.48H2.48447V18.452ZM2.53247 32.428H9.45647V33.688H4.12847V37.564H2.53247V32.428ZM2.53247 37.168H9.55247V38.44H2.53247V37.168ZM2.41247 46.308H9.48047V49.944H3.94847V51.84H2.43647V48.696H7.95647V47.556H2.41247V46.308ZM2.43647 51.132H9.64847V52.428H2.43647V51.132ZM2.50847 60.476H9.55247V66.356H2.50847V60.476ZM7.96847 61.76H4.09247V65.084H7.96847V61.76ZM2.50847 74.308H4.09247V76.036H7.94447V74.308H9.52847V80.452H2.50847V74.308ZM4.09247 77.452V79.06H7.94447V77.452H4.09247ZM5.22047 88.26H6.57647V89.904C6.57647 90.496 6.49647 91.048 6.33647 91.56C6.17647 92.064 5.93647 92.52 5.61647 92.928C5.29647 93.336 4.89647 93.688 4.41647 93.984C3.93647 94.272 3.37647 94.488 2.73647 94.632L1.98047 93.36C2.54047 93.248 3.02447 93.08 3.43247 92.856C3.84847 92.632 4.18447 92.368 4.44047 92.064C4.70447 91.76 4.90047 91.428 5.02847 91.068C5.15647 90.7 5.22047 90.312 5.22047 89.904V88.26ZM5.46047 88.26H6.81647V89.904C6.81647 90.312 6.88047 90.7 7.00847 91.068C7.13647 91.428 7.32847 91.76 7.58447 92.064C7.84847 92.368 8.18447 92.632 8.59247 92.856C9.00047 93.08 9.48847 93.248 10.0565 93.36L9.30047 94.632C8.66047 94.488 8.10047 94.272 7.62047 93.984C7.14047 93.688 6.74047 93.336 6.42047 92.928C6.10047 92.52 5.86047 92.064 5.70047 91.56C5.54047 91.048 5.46047 90.496 5.46047 89.904V88.26ZM6.01247 102.272C6.50047 102.272 6.95647 102.352 7.38047 102.512C7.80447 102.664 8.18047 102.88 8.50847 103.16C8.83647 103.44 9.09247 103.772 9.27647 104.156C9.46047 104.54 9.55247 104.956 9.55247 105.404C9.55247 105.86 9.46047 106.28 9.27647 106.664C9.09247 107.048 8.83647 107.384 8.50847 107.672C8.18047 107.96 7.80447 108.184 7.38047 108.344C6.95647 108.496 6.50047 108.572 6.01247 108.572C5.52447 108.572 5.06447 108.496 4.63247 108.344C4.20847 108.184 3.83247 107.96 3.50447 107.672C3.17647 107.384 2.92047 107.048 2.73647 106.664C2.56047 106.28 2.47247 105.86 2.47247 105.404C2.47247 104.956 2.56047 104.54 2.73647 104.156C2.92047 103.772 3.17647 103.44 3.50447 103.16C3.83247 102.88 4.20847 102.664 4.63247 102.512C5.06447 102.352 5.52447 102.272 6.01247 102.272ZM6.01247 103.628C5.63647 103.628 5.29647 103.704 4.99247 103.856C4.68847 104 4.44447 104.204 4.26047 104.468C4.08447 104.732 3.99647 105.044 3.99647 105.404C3.99647 105.772 4.08447 106.092 4.26047 106.364C4.44447 106.636 4.68847 106.848 4.99247 107C5.29647 107.144 5.63647 107.216 6.01247 107.216C6.38847 107.216 6.72847 107.144 7.03247 107C7.33647 106.848 7.57647 106.636 7.75247 106.364C7.93647 106.092 8.02847 105.772 8.02847 105.404C8.02847 105.044 7.93647 104.732 7.75247 104.468C7.57647 104.204 7.33647 104 7.03247 103.856C6.72847 103.704 6.38847 103.628 6.01247 103.628ZM5.24447 116.536H6.50447V117.868C6.50447 118.452 6.42847 118.996 6.27647 119.5C6.13247 120.004 5.90847 120.46 5.60447 120.868C5.30047 121.268 4.92047 121.616 4.46447 121.912C4.01647 122.2 3.48847 122.424 2.88047 122.584L2.14847 121.372C2.68447 121.252 3.14847 121.08 3.54047 120.856C3.93247 120.624 4.25247 120.356 4.50047 120.052C4.75647 119.74 4.94447 119.4 5.06447 119.032C5.18447 118.664 5.24447 118.276 5.24447 117.868V116.536ZM5.55647 116.536H6.82847V117.868C6.82847 118.276 6.88847 118.664 7.00847 119.032C7.12847 119.4 7.31247 119.74 7.56047 120.052C7.81647 120.356 8.13647 120.624 8.52047 120.856C8.91247 121.08 9.38047 121.252 9.92447 121.372L9.19247 122.584C8.58447 122.424 8.05247 122.2 7.59647 121.912C7.14847 121.616 6.77247 121.268 6.46847 120.868C6.16447 120.46 5.93647 120.004 5.78447 119.5C5.63247 118.996 5.55647 118.452 5.55647 117.868V116.536ZM2.52047 116.32H9.61247V117.58H2.52047V116.32ZM5.04047 132.444H6.38447V132.672C6.38447 133.192 6.30847 133.676 6.15647 134.124C6.00447 134.564 5.77647 134.96 5.47247 135.312C5.17647 135.656 4.80047 135.952 4.34447 136.2C3.88847 136.448 3.35247 136.632 2.73647 136.752L2.02847 135.516C2.57247 135.42 3.03247 135.28 3.40847 135.096C3.79247 134.912 4.10447 134.696 4.34447 134.448C4.58447 134.2 4.76047 133.924 4.87247 133.62C4.98447 133.316 5.04047 133 5.04047 132.672V132.444ZM5.61647 132.444H6.96047V132.672C6.96047 133 7.01647 133.316 7.12847 133.62C7.24047 133.924 7.41247 134.2 7.64447 134.448C7.88447 134.696 8.19647 134.912 8.58047 135.096C8.97247 135.28 9.43647 135.42 9.97247 135.516L9.25247 136.752C8.64447 136.632 8.11247 136.448 7.65647 136.2C7.20047 135.952 6.82047 135.656 6.51647 135.312C6.21247 134.96 5.98447 134.564 5.83247 134.124C5.68847 133.676 5.61647 133.192 5.61647 132.672V132.444ZM2.42447 131.268H9.60047V132.564H2.42447V131.268ZM5.20847 129.612H6.80447V131.916H5.20847V129.612ZM2.67647 144.308H9.62447V150.536H8.02847V145.568H2.67647V144.308ZM8.46047 146.984V148.208L2.55647 148.604L2.37647 147.236L8.46047 146.984ZM2.47247 158.404H9.50447V159.664H4.08047V163.84H2.47247V158.404ZM2.47247 163.18H9.60047V164.452H2.47247V163.18ZM2.79647 160.744H9.42047V162.016H2.79647V160.744ZM2.42447 172.404H9.64847V173.664H2.42447V172.404ZM2.26847 177.264H9.80447V178.548H2.26847V177.264ZM3.50447 173.424H5.08847V177.768H3.50447V173.424ZM6.98447 173.424H8.56847V177.768H6.98447V173.424ZM2.36447 186.836H9.69647V188.132H2.36447V186.836ZM6.04847 188.708C6.60847 188.708 7.10847 188.8 7.54847 188.984C7.98847 189.168 8.33247 189.424 8.58047 189.752C8.82847 190.08 8.95247 190.456 8.95247 190.88C8.95247 191.304 8.82847 191.68 8.58047 192.008C8.33247 192.336 7.98847 192.592 7.54847 192.776C7.10847 192.952 6.60847 193.04 6.04847 193.04C5.49647 193.04 4.99647 192.952 4.54847 192.776C4.10847 192.592 3.76047 192.336 3.50447 192.008C3.25647 191.68 3.13247 191.304 3.13247 190.88C3.13247 190.456 3.25647 190.08 3.50447 189.752C3.76047 189.424 4.10847 189.168 4.54847 188.984C4.98847 188.8 5.48847 188.708 6.04847 188.708ZM6.04847 190.04C5.80847 190.04 5.58847 190.072 5.38847 190.136C5.19647 190.2 5.04447 190.292 4.93247 190.412C4.82047 190.532 4.76447 190.688 4.76447 190.88C4.76447 191.064 4.82047 191.22 4.93247 191.348C5.04447 191.468 5.19647 191.56 5.38847 191.624C5.58847 191.68 5.80847 191.708 6.04847 191.708C6.29647 191.708 6.51647 191.68 6.70847 191.624C6.90047 191.56 7.04847 191.468 7.15247 191.348C7.26447 191.22 7.32047 191.064 7.32047 190.88C7.32047 190.688 7.26447 190.532 7.15247 190.412C7.04847 190.292 6.90047 190.2 6.70847 190.136C6.51647 190.072 6.29647 190.04 6.04847 190.04ZM5.25647 185.468H6.85247V187.976H5.25647V185.468Z" fill="white"/>
<path d="M21.332 7.524C21.332 7.308 21.388 7.108 21.5 6.924C21.62 6.732 21.772 6.58 21.956 6.468C22.148 6.356 22.348 6.3 22.556 6.3C22.78 6.3 22.984 6.356 23.168 6.468C23.352 6.58 23.5 6.732 23.612 6.924C23.724 7.108 23.78 7.308 23.78 7.524C23.78 7.852 23.66 8.136 23.42 8.376C23.18 8.616 22.892 8.736 22.556 8.736C22.348 8.736 22.148 8.68 21.956 8.568C21.772 8.456 21.62 8.308 21.5 8.124C21.388 7.94 21.332 7.74 21.332 7.524ZM30.8711 6.492H41.0591V8.052H30.8711V6.492ZM48.2101 7.524C48.2101 7.308 48.2661 7.108 48.3781 6.924C48.4981 6.732 48.6501 6.58 48.8341 6.468C49.0261 6.356 49.2261 6.3 49.4341 6.3C49.6581 6.3 49.8621 6.356 50.0461 6.468C50.2301 6.58 50.3781 6.732 50.4901 6.924C50.6021 7.108 50.6581 7.308 50.6581 7.524C50.6581 7.852 50.5381 8.136 50.2981 8.376C50.0581 8.616 49.7701 8.736 49.4341 8.736C49.2261 8.736 49.0261 8.68 48.8341 8.568C48.6501 8.456 48.4981 8.308 48.3781 8.124C48.2661 7.94 48.2101 7.74 48.2101 7.524ZM61.6492 7.524C61.6492 7.308 61.7052 7.108 61.8172 6.924C61.9372 6.732 62.0892 6.58 62.2732 6.468C62.4652 6.356 62.6652 6.3 62.8732 6.3C63.0972 6.3 63.3012 6.356 63.4852 6.468C63.6692 6.58 63.8172 6.732 63.9292 6.924C64.0412 7.108 64.0972 7.308 64.0972 7.524C64.0972 7.852 63.9772 8.136 63.7372 8.376C63.4972 8.616 63.2092 8.736 62.8732 8.736C62.6652 8.736 62.4652 8.68 62.2732 8.568C62.0892 8.456 61.9372 8.308 61.8172 8.124C61.7052 7.94 61.6492 7.74 61.6492 7.524ZM21.332 21.524C21.332 21.308 21.388 21.108 21.5 20.924C21.62 20.732 21.772 20.58 21.956 20.468C22.148 20.356 22.348 20.3 22.556 20.3C22.78 20.3 22.984 20.356 23.168 20.468C23.352 20.58 23.5 20.732 23.612 20.924C23.724 21.108 23.78 21.308 23.78 21.524C23.78 21.852 23.66 22.136 23.42 22.376C23.18 22.616 22.892 22.736 22.556 22.736C22.348 22.736 22.148 22.68 21.956 22.568C21.772 22.456 21.62 22.308 21.5 22.124C21.388 21.94 21.332 21.74 21.332 21.524ZM34.7711 21.524C34.7711 21.308 34.8271 21.108 34.9391 20.924C35.0591 20.732 35.2111 20.58 35.3951 20.468C35.5871 20.356 35.7871 20.3 35.9951 20.3C36.2191 20.3 36.4231 20.356 36.6071 20.468C36.7911 20.58 36.9391 20.732 37.0511 20.924C37.1631 21.108 37.2191 21.308 37.2191 21.524C37.2191 21.852 37.0991 22.136 36.8591 22.376C36.6191 22.616 36.3311 22.736 35.9951 22.736C35.7871 22.736 35.5871 22.68 35.3951 22.568C35.2111 22.456 35.0591 22.308 34.9391 22.124C34.8271 21.94 34.7711 21.74 34.7711 21.524ZM44.3101 20.492H54.4981V22.052H44.3101V20.492ZM61.6492 21.524C61.6492 21.308 61.7052 21.108 61.8172 20.924C61.9372 20.732 62.0892 20.58 62.2732 20.468C62.4652 20.356 62.6652 20.3 62.8732 20.3C63.0972 20.3 63.3012 20.356 63.4852 20.468C63.6692 20.58 63.8172 20.732 63.9292 20.924C64.0412 21.108 64.0972 21.308 64.0972 21.524C64.0972 21.852 63.9772 22.136 63.7372 22.376C63.4972 22.616 63.2092 22.736 62.8732 22.736C62.6652 22.736 62.4652 22.68 62.2732 22.568C62.0892 22.456 61.9372 22.308 61.8172 22.124C61.7052 21.94 61.6492 21.74 61.6492 21.524ZM17.432 34.492H27.62V36.052H17.432V34.492ZM34.7711 35.524C34.7711 35.308 34.8271 35.108 34.9391 34.924C35.0591 34.732 35.2111 34.58 35.3951 34.468C35.5871 34.356 35.7871 34.3 35.9951 34.3C36.2191 34.3 36.4231 34.356 36.6071 34.468C36.7911 34.58 36.9391 34.732 37.0511 34.924C37.1631 35.108 37.2191 35.308 37.2191 35.524C37.2191 35.852 37.0991 36.136 36.8591 36.376C36.6191 36.616 36.3311 36.736 35.9951 36.736C35.7871 36.736 35.5871 36.68 35.3951 36.568C35.2111 36.456 35.0591 36.308 34.9391 36.124C34.8271 35.94 34.7711 35.74 34.7711 35.524ZM48.2101 35.524C48.2101 35.308 48.2661 35.108 48.3781 34.924C48.4981 34.732 48.6501 34.58 48.8341 34.468C49.0261 34.356 49.2261 34.3 49.4341 34.3C49.6581 34.3 49.8621 34.356 50.0461 34.468C50.2301 34.58 50.3781 34.732 50.4901 34.924C50.6021 35.108 50.6581 35.308 50.6581 35.524C50.6581 35.852 50.5381 36.136 50.2981 36.376C50.0581 36.616 49.7701 36.736 49.4341 36.736C49.2261 36.736 49.0261 36.68 48.8341 36.568C48.6501 36.456 48.4981 36.308 48.3781 36.124C48.2661 35.94 48.2101 35.74 48.2101 35.524ZM61.6492 35.524C61.6492 35.308 61.7052 35.108 61.8172 34.924C61.9372 34.732 62.0892 34.58 62.2732 34.468C62.4652 34.356 62.6652 34.3 62.8732 34.3C63.0972 34.3 63.3012 34.356 63.4852 34.468C63.6692 34.58 63.8172 34.732 63.9292 34.924C64.0412 35.108 64.0972 35.308 64.0972 35.524C64.0972 35.852 63.9772 36.136 63.7372 36.376C63.4972 36.616 63.2092 36.736 62.8732 36.736C62.6652 36.736 62.4652 36.68 62.2732 36.568C62.0892 36.456 61.9372 36.308 61.8172 36.124C61.7052 35.94 61.6492 35.74 61.6492 35.524ZM21.332 49.524C21.332 49.308 21.388 49.108 21.5 48.924C21.62 48.732 21.772 48.58 21.956 48.468C22.148 48.356 22.348 48.3 22.556 48.3C22.78 48.3 22.984 48.356 23.168 48.468C23.352 48.58 23.5 48.732 23.612 48.924C23.724 49.108 23.78 49.308 23.78 49.524C23.78 49.852 23.66 50.136 23.42 50.376C23.18 50.616 22.892 50.736 22.556 50.736C22.348 50.736 22.148 50.68 21.956 50.568C21.772 50.456 21.62 50.308 21.5 50.124C21.388 49.94 21.332 49.74 21.332 49.524ZM34.7711 49.524C34.7711 49.308 34.8271 49.108 34.9391 48.924C35.0591 48.732 35.2111 48.58 35.3951 48.468C35.5871 48.356 35.7871 48.3 35.9951 48.3C36.2191 48.3 36.4231 48.356 36.6071 48.468C36.7911 48.58 36.9391 48.732 37.0511 48.924C37.1631 49.108 37.2191 49.308 37.2191 49.524C37.2191 49.852 37.0991 50.136 36.8591 50.376C36.6191 50.616 36.3311 50.736 35.9951 50.736C35.7871 50.736 35.5871 50.68 35.3951 50.568C35.2111 50.456 35.0591 50.308 34.9391 50.124C34.8271 49.94 34.7711 49.74 34.7711 49.524ZM48.2101 49.524C48.2101 49.308 48.2661 49.108 48.3781 48.924C48.4981 48.732 48.6501 48.58 48.8341 48.468C49.0261 48.356 49.2261 48.3 49.4341 48.3C49.6581 48.3 49.8621 48.356 50.0461 48.468C50.2301 48.58 50.3781 48.732 50.4901 48.924C50.6021 49.108 50.6581 49.308 50.6581 49.524C50.6581 49.852 50.5381 50.136 50.2981 50.376C50.0581 50.616 49.7701 50.736 49.4341 50.736C49.2261 50.736 49.0261 50.68 48.8341 50.568C48.6501 50.456 48.4981 50.308 48.3781 50.124C48.2661 49.94 48.2101 49.74 48.2101 49.524ZM57.7492 48.492H67.9372V50.052H57.7492V48.492ZM17.432 62.492H27.62V64.052H17.432V62.492ZM30.8711 62.492H41.0591V64.052H30.8711V62.492ZM21.332 77.524C21.332 77.308 21.388 77.108 21.5 76.924C21.62 76.732 21.772 76.58 21.956 76.468C22.148 76.356 22.348 76.3 22.556 76.3C22.78 76.3 22.984 76.356 23.168 76.468C23.352 76.58 23.5 76.732 23.612 76.924C23.724 77.108 23.78 77.308 23.78 77.524C23.78 77.852 23.66 78.136 23.42 78.376C23.18 78.616 22.892 78.736 22.556 78.736C22.348 78.736 22.148 78.68 21.956 78.568C21.772 78.456 21.62 78.308 21.5 78.124C21.388 77.94 21.332 77.74 21.332 77.524ZM30.8711 76.492H41.0591V78.052H30.8711V76.492ZM44.3101 76.492H54.4981V78.052H44.3101V76.492ZM17.432 90.492H27.62V92.052H17.432V90.492ZM30.8711 90.492H41.0591V92.052H30.8711V90.492ZM48.2101 91.524C48.2101 91.308 48.2661 91.108 48.3781 90.924C48.4981 90.732 48.6501 90.58 48.8341 90.468C49.0261 90.356 49.2261 90.3 49.4341 90.3C49.6581 90.3 49.8621 90.356 50.0461 90.468C50.2301 90.58 50.3781 90.732 50.4901 90.924C50.6021 91.108 50.6581 91.308 50.6581 91.524C50.6581 91.852 50.5381 92.136 50.2981 92.376C50.0581 92.616 49.7701 92.736 49.4341 92.736C49.2261 92.736 49.0261 92.68 48.8341 92.568C48.6501 92.456 48.4981 92.308 48.3781 92.124C48.2661 91.94 48.2101 91.74 48.2101 91.524ZM17.432 104.492H27.62V106.052H17.432V104.492ZM34.7711 105.524C34.7711 105.308 34.8271 105.108 34.9391 104.924C35.0591 104.732 35.2111 104.58 35.3951 104.468C35.5871 104.356 35.7871 104.3 35.9951 104.3C36.2191 104.3 36.4231 104.356 36.6071 104.468C36.7911 104.58 36.9391 104.732 37.0511 104.924C37.1631 105.108 37.2191 105.308 37.2191 105.524C37.2191 105.852 37.0991 106.136 36.8591 106.376C36.6191 106.616 36.3311 106.736 35.9951 106.736C35.7871 106.736 35.5871 106.68 35.3951 106.568C35.2111 106.456 35.0591 106.308 34.9391 106.124C34.8271 105.94 34.7711 105.74 34.7711 105.524ZM44.3101 104.492H54.4981V106.052H44.3101V104.492ZM21.332 119.524C21.332 119.308 21.388 119.108 21.5 118.924C21.62 118.732 21.772 118.58 21.956 118.468C22.148 118.356 22.348 118.3 22.556 118.3C22.78 118.3 22.984 118.356 23.168 118.468C23.352 118.58 23.5 118.732 23.612 118.924C23.724 119.108 23.78 119.308 23.78 119.524C23.78 119.852 23.66 120.136 23.42 120.376C23.18 120.616 22.892 120.736 22.556 120.736C22.348 120.736 22.148 120.68 21.956 120.568C21.772 120.456 21.62 120.308 21.5 120.124C21.388 119.94 21.332 119.74 21.332 119.524ZM30.8711 118.492H41.0591V120.052H30.8711V118.492ZM44.3101 118.492H54.4981V120.052H44.3101V118.492ZM61.6492 119.524C61.6492 119.308 61.7052 119.108 61.8172 118.924C61.9372 118.732 62.0892 118.58 62.2732 118.468C62.4652 118.356 62.6652 118.3 62.8732 118.3C63.0972 118.3 63.3012 118.356 63.4852 118.468C63.6692 118.58 63.8172 118.732 63.9292 118.924C64.0412 119.108 64.0972 119.308 64.0972 119.524C64.0972 119.852 63.9772 120.136 63.7372 120.376C63.4972 120.616 63.2092 120.736 62.8732 120.736C62.6652 120.736 62.4652 120.68 62.2732 120.568C62.0892 120.456 61.9372 120.308 61.8172 120.124C61.7052 119.94 61.6492 119.74 61.6492 119.524ZM17.432 132.492H27.62V134.052H17.432V132.492ZM34.7711 133.524C34.7711 133.308 34.8271 133.108 34.9391 132.924C35.0591 132.732 35.2111 132.58 35.3951 132.468C35.5871 132.356 35.7871 132.3 35.9951 132.3C36.2191 132.3 36.4231 132.356 36.6071 132.468C36.7911 132.58 36.9391 132.732 37.0511 132.924C37.1631 133.108 37.2191 133.308 37.2191 133.524C37.2191 133.852 37.0991 134.136 36.8591 134.376C36.6191 134.616 36.3311 134.736 35.9951 134.736C35.7871 134.736 35.5871 134.68 35.3951 134.568C35.2111 134.456 35.0591 134.308 34.9391 134.124C34.8271 133.94 34.7711 133.74 34.7711 133.524ZM44.3101 132.492H54.4981V134.052H44.3101V132.492ZM61.6492 133.524C61.6492 133.308 61.7052 133.108 61.8172 132.924C61.9372 132.732 62.0892 132.58 62.2732 132.468C62.4652 132.356 62.6652 132.3 62.8732 132.3C63.0972 132.3 63.3012 132.356 63.4852 132.468C63.6692 132.58 63.8172 132.732 63.9292 132.924C64.0412 133.108 64.0972 133.308 64.0972 133.524C64.0972 133.852 63.9772 134.136 63.7372 134.376C63.4972 134.616 63.2092 134.736 62.8732 134.736C62.6652 134.736 62.4652 134.68 62.2732 134.568C62.0892 134.456 61.9372 134.308 61.8172 134.124C61.7052 133.94 61.6492 133.74 61.6492 133.524ZM17.432 146.492H27.62V148.052H17.432V146.492ZM34.7711 147.524C34.7711 147.308 34.8271 147.108 34.9391 146.924C35.0591 146.732 35.2111 146.58 35.3951 146.468C35.5871 146.356 35.7871 146.3 35.9951 146.3C36.2191 146.3 36.4231 146.356 36.6071 146.468C36.7911 146.58 36.9391 146.732 37.0511 146.924C37.1631 147.108 37.2191 147.308 37.2191 147.524C37.2191 147.852 37.0991 148.136 36.8591 148.376C36.6191 148.616 36.3311 148.736 35.9951 148.736C35.7871 148.736 35.5871 148.68 35.3951 148.568C35.2111 148.456 35.0591 148.308 34.9391 148.124C34.8271 147.94 34.7711 147.74 34.7711 147.524ZM48.2101 147.524C48.2101 147.308 48.2661 147.108 48.3781 146.924C48.4981 146.732 48.6501 146.58 48.8341 146.468C49.0261 146.356 49.2261 146.3 49.4341 146.3C49.6581 146.3 49.8621 146.356 50.0461 146.468C50.2301 146.58 50.3781 146.732 50.4901 146.924C50.6021 147.108 50.6581 147.308 50.6581 147.524C50.6581 147.852 50.5381 148.136 50.2981 148.376C50.0581 148.616 49.7701 148.736 49.4341 148.736C49.2261 148.736 49.0261 148.68 48.8341 148.568C48.6501 148.456 48.4981 148.308 48.3781 148.124C48.2661 147.94 48.2101 147.74 48.2101 147.524ZM57.7492 146.492H67.9372V148.052H57.7492V146.492ZM17.432 160.492H27.62V162.052H17.432V160.492ZM30.8711 160.492H41.0591V162.052H30.8711V160.492ZM48.2101 161.524C48.2101 161.308 48.2661 161.108 48.3781 160.924C48.4981 160.732 48.6501 160.58 48.8341 160.468C49.0261 160.356 49.2261 160.3 49.4341 160.3C49.6581 160.3 49.8621 160.356 50.0461 160.468C50.2301 160.58 50.3781 160.732 50.4901 160.924C50.6021 161.108 50.6581 161.308 50.6581 161.524C50.6581 161.852 50.5381 162.136 50.2981 162.376C50.0581 162.616 49.7701 162.736 49.4341 162.736C49.2261 162.736 49.0261 162.68 48.8341 162.568C48.6501 162.456 48.4981 162.308 48.3781 162.124C48.2661 161.94 48.2101 161.74 48.2101 161.524ZM61.6492 161.524C61.6492 161.308 61.7052 161.108 61.8172 160.924C61.9372 160.732 62.0892 160.58 62.2732 160.468C62.4652 160.356 62.6652 160.3 62.8732 160.3C63.0972 160.3 63.3012 160.356 63.4852 160.468C63.6692 160.58 63.8172 160.732 63.9292 160.924C64.0412 161.108 64.0972 161.308 64.0972 161.524C64.0972 161.852 63.9772 162.136 63.7372 162.376C63.4972 162.616 63.2092 162.736 62.8732 162.736C62.6652 162.736 62.4652 162.68 62.2732 162.568C62.0892 162.456 61.9372 162.308 61.8172 162.124C61.7052 161.94 61.6492 161.74 61.6492 161.524ZM17.432 174.492H27.62V176.052H17.432V174.492ZM30.8711 174.492H41.0591V176.052H30.8711V174.492ZM44.3101 174.492H54.4981V176.052H44.3101V174.492ZM21.332 189.524C21.332 189.308 21.388 189.108 21.5 188.924C21.62 188.732 21.772 188.58 21.956 188.468C22.148 188.356 22.348 188.3 22.556 188.3C22.78 188.3 22.984 188.356 23.168 188.468C23.352 188.58 23.5 188.732 23.612 188.924C23.724 189.108 23.78 189.308 23.78 189.524C23.78 189.852 23.66 190.136 23.42 190.376C23.18 190.616 22.892 190.736 22.556 190.736C22.348 190.736 22.148 190.68 21.956 190.568C21.772 190.456 21.62 190.308 21.5 190.124C21.388 189.94 21.332 189.74 21.332 189.524ZM30.8711 188.492H41.0591V190.052H30.8711V188.492ZM44.3101 188.492H54.4981V190.052H44.3101V188.492ZM57.7492 188.492H67.9372V190.052H57.7492V188.492Z" fill="white"/>
</svg>
