<svg width="224" height="196" viewBox="0 0 224 196" fill="none" xmlns="http://www.w3.org/2000/svg">
<path d="M1.44494 12V10.56H3.36494V4.956H1.74494V3.852C2.19294 3.772 2.57694 3.676 2.89694 3.564C3.22494 3.444 3.52894 3.292 3.80894 3.108H5.11694V10.56H6.78494V12H1.44494ZM0.976938 26V24.98C1.78494 24.26 2.47294 23.592 3.04094 22.976C3.61694 22.36 4.05694 21.788 4.36094 21.26C4.66494 20.724 4.81694 20.228 4.81694 19.772C4.81694 19.484 4.76494 19.232 4.66094 19.016C4.55694 18.8 4.40494 18.636 4.20494 18.524C4.01294 18.404 3.77294 18.344 3.48494 18.344C3.16494 18.344 2.86894 18.436 2.59694 18.62C2.33294 18.796 2.08894 19.008 1.86494 19.256L0.880938 18.308C1.29694 17.86 1.72094 17.524 2.15294 17.3C2.59294 17.068 3.11294 16.952 3.71294 16.952C4.27294 16.952 4.76094 17.068 5.17694 17.3C5.60094 17.524 5.92894 17.84 6.16094 18.248C6.39294 18.656 6.50894 19.136 6.50894 19.688C6.50894 20.224 6.37294 20.772 6.10094 21.332C5.83694 21.884 5.48094 22.436 5.03294 22.988C4.58494 23.54 4.08894 24.084 3.54494 24.62C3.77694 24.588 4.02494 24.564 4.28894 24.548C4.56094 24.524 4.80094 24.512 5.00894 24.512H6.92894V26H0.976938ZM3.73694 40.168C3.27294 40.168 2.85694 40.112 2.48894 40C2.12094 39.896 1.79294 39.752 1.50494 39.568C1.22494 39.376 0.980938 39.164 0.772938 38.932L1.60094 37.816C1.87294 38.064 2.16894 38.28 2.48894 38.464C2.81694 38.64 3.18094 38.728 3.58094 38.728C3.88494 38.728 4.14894 38.68 4.37294 38.584C4.60494 38.488 4.78094 38.348 4.90094 38.164C5.02894 37.98 5.09294 37.756 5.09294 37.492C5.09294 37.196 5.02094 36.944 4.87694 36.736C4.74094 36.52 4.49694 36.356 4.14494 36.244C3.79294 36.132 3.29694 36.076 2.65694 36.076V34.804C3.20094 34.804 3.62894 34.748 3.94094 34.636C4.25294 34.516 4.47294 34.356 4.60094 34.156C4.73694 33.948 4.80494 33.712 4.80494 33.448C4.80494 33.104 4.70094 32.836 4.49294 32.644C4.28494 32.444 3.99294 32.344 3.61694 32.344C3.30494 32.344 3.01294 32.416 2.74094 32.56C2.47694 32.696 2.21294 32.884 1.94894 33.124L1.03694 32.032C1.42894 31.704 1.84094 31.444 2.27294 31.252C2.70494 31.052 3.18094 30.952 3.70094 30.952C4.26894 30.952 4.76894 31.044 5.20094 31.228C5.64094 31.412 5.98094 31.68 6.22094 32.032C6.46094 32.384 6.58094 32.812 6.58094 33.316C6.58094 33.796 6.45294 34.208 6.19694 34.552C5.94094 34.896 5.57694 35.16 5.10494 35.344V35.404C5.43294 35.492 5.72894 35.636 5.99294 35.836C6.26494 36.028 6.47694 36.272 6.62894 36.568C6.78894 36.864 6.86894 37.208 6.86894 37.6C6.86894 38.136 6.72494 38.596 6.43694 38.98C6.15694 39.364 5.77694 39.66 5.29694 39.868C4.82494 40.068 4.30494 40.168 3.73694 40.168ZM4.50494 54V48.54C4.50494 48.284 4.51294 47.98 4.52894 47.628C4.54494 47.268 4.56094 46.956 4.57694 46.692H4.51694C4.41294 46.932 4.30094 47.172 4.18094 47.412C4.06094 47.652 3.93694 47.896 3.80894 48.144L2.42894 50.352H7.20494V51.696H0.712938V50.496L4.02494 45.108H6.14894V54H4.50494ZM3.78494 68.168C3.31294 68.168 2.89294 68.112 2.52494 68C2.15694 67.888 1.82894 67.74 1.54094 67.556C1.25294 67.372 0.996938 67.172 0.772938 66.956L1.58894 65.828C1.75694 65.996 1.93694 66.148 2.12894 66.284C2.32894 66.42 2.54494 66.528 2.77694 66.608C3.01694 66.688 3.27294 66.728 3.54494 66.728C3.84894 66.728 4.11694 66.664 4.34894 66.536C4.58894 66.408 4.77694 66.224 4.91294 65.984C5.04894 65.736 5.11694 65.44 5.11694 65.096C5.11694 64.584 4.97694 64.188 4.69694 63.908C4.42494 63.628 4.06494 63.488 3.61694 63.488C3.36094 63.488 3.14094 63.524 2.95694 63.596C2.77294 63.66 2.54894 63.776 2.28494 63.944L1.48094 63.428L1.72094 59.108H6.47294V60.596H3.24494L3.07694 62.48C3.25294 62.4 3.42494 62.34 3.59294 62.3C3.76094 62.26 3.94494 62.24 4.14494 62.24C4.64094 62.24 5.09694 62.34 5.51294 62.54C5.92894 62.732 6.26094 63.036 6.50894 63.452C6.75694 63.868 6.88094 64.4 6.88094 65.048C6.88094 65.704 6.73294 66.268 6.43694 66.74C6.14894 67.204 5.76894 67.56 5.29694 67.808C4.83294 68.048 4.32894 68.168 3.78494 68.168ZM4.25294 82.168C3.83694 82.168 3.43294 82.08 3.04094 81.904C2.65694 81.728 2.31694 81.46 2.02094 81.1C1.72494 80.732 1.48894 80.268 1.31294 79.708C1.14494 79.14 1.06094 78.464 1.06094 77.68C1.06094 76.856 1.15294 76.144 1.33694 75.544C1.52894 74.944 1.78494 74.456 2.10494 74.08C2.42494 73.696 2.78894 73.412 3.19694 73.228C3.61294 73.044 4.04894 72.952 4.50494 72.952C5.04894 72.952 5.51694 73.052 5.90894 73.252C6.30894 73.444 6.64094 73.68 6.90494 73.96L5.96894 75.016C5.81694 74.84 5.61694 74.688 5.36894 74.56C5.12094 74.432 4.86894 74.368 4.61294 74.368C4.25294 74.368 3.92494 74.472 3.62894 74.68C3.34094 74.888 3.10894 75.232 2.93294 75.712C2.75694 76.192 2.66894 76.848 2.66894 77.68C2.66894 78.448 2.73694 79.064 2.87294 79.528C3.01694 79.984 3.20494 80.316 3.43694 80.524C3.66894 80.732 3.92894 80.836 4.21694 80.836C4.44094 80.836 4.64094 80.776 4.81694 80.656C5.00094 80.528 5.14894 80.344 5.26094 80.104C5.37294 79.856 5.42894 79.552 5.42894 79.192C5.42894 78.84 5.37294 78.552 5.26094 78.328C5.15694 78.104 5.00894 77.936 4.81694 77.824C4.63294 77.712 4.41294 77.656 4.15694 77.656C3.91694 77.656 3.66494 77.732 3.40094 77.884C3.13694 78.028 2.89294 78.284 2.66894 78.652L2.58494 77.464C2.74494 77.24 2.93294 77.048 3.14894 76.888C3.37294 76.728 3.60094 76.608 3.83294 76.528C4.07294 76.448 4.28894 76.408 4.48094 76.408C4.97694 76.408 5.41694 76.508 5.80094 76.708C6.19294 76.908 6.49694 77.212 6.71294 77.62C6.92894 78.028 7.03694 78.552 7.03694 79.192C7.03694 79.8 6.90894 80.328 6.65294 80.776C6.40494 81.216 6.06894 81.56 5.64494 81.808C5.22094 82.048 4.75694 82.168 4.25294 82.168ZM2.69294 96C2.73294 95.232 2.80094 94.524 2.89694 93.876C2.99294 93.22 3.12894 92.604 3.30494 92.028C3.48094 91.444 3.70894 90.872 3.98894 90.312C4.27694 89.752 4.63294 89.18 5.05694 88.596H1.06094V87.108H6.96494V88.188C6.45294 88.812 6.03694 89.412 5.71694 89.988C5.40494 90.564 5.16494 91.148 4.99694 91.74C4.83694 92.332 4.71694 92.972 4.63694 93.66C4.56494 94.348 4.50894 95.128 4.46894 96H2.69294ZM4.00094 110.168C3.43294 110.168 2.92494 110.068 2.47694 109.868C2.02894 109.668 1.67294 109.388 1.40894 109.028C1.15294 108.668 1.02494 108.256 1.02494 107.792C1.02494 107.408 1.09294 107.072 1.22894 106.784C1.37294 106.488 1.56094 106.232 1.79294 106.016C2.02494 105.8 2.27694 105.62 2.54894 105.476V105.416C2.21294 105.176 1.93294 104.884 1.70894 104.54C1.48494 104.188 1.37294 103.78 1.37294 103.316C1.37294 102.836 1.48894 102.42 1.72094 102.068C1.95294 101.716 2.26894 101.444 2.66894 101.252C3.07694 101.06 3.53694 100.964 4.04894 100.964C4.57694 100.964 5.03294 101.064 5.41694 101.264C5.80094 101.456 6.09694 101.728 6.30494 102.08C6.52094 102.432 6.62894 102.848 6.62894 103.328C6.62894 103.616 6.57294 103.888 6.46094 104.144C6.35694 104.4 6.21694 104.632 6.04094 104.84C5.87294 105.04 5.68894 105.212 5.48894 105.356V105.416C5.76894 105.56 6.02094 105.74 6.24494 105.956C6.46894 106.172 6.64894 106.432 6.78494 106.736C6.92094 107.032 6.98894 107.384 6.98894 107.792C6.98894 108.24 6.86094 108.644 6.60494 109.004C6.35694 109.364 6.00894 109.648 5.56094 109.856C5.11294 110.064 4.59294 110.168 4.00094 110.168ZM4.55294 104.924C4.76894 104.692 4.92894 104.452 5.03294 104.204C5.13694 103.956 5.18894 103.7 5.18894 103.436C5.18894 103.196 5.14094 102.984 5.04494 102.8C4.95694 102.608 4.82494 102.46 4.64894 102.356C4.47294 102.252 4.26094 102.2 4.01294 102.2C3.70894 102.2 3.45294 102.296 3.24494 102.488C3.03694 102.68 2.93294 102.956 2.93294 103.316C2.93294 103.588 3.00094 103.824 3.13694 104.024C3.28094 104.216 3.47694 104.384 3.72494 104.528C3.97294 104.664 4.24894 104.796 4.55294 104.924ZM4.03694 108.92C4.29294 108.92 4.51694 108.876 4.70894 108.788C4.90894 108.692 5.06494 108.556 5.17694 108.38C5.28894 108.196 5.34494 107.98 5.34494 107.732C5.34494 107.5 5.29294 107.3 5.18894 107.132C5.09294 106.956 4.95694 106.804 4.78094 106.676C4.60494 106.54 4.39694 106.416 4.15694 106.304C3.91694 106.192 3.65294 106.072 3.36494 105.944C3.12494 106.144 2.92894 106.388 2.77694 106.676C2.62494 106.956 2.54894 107.264 2.54894 107.6C2.54894 107.864 2.61294 108.096 2.74094 108.296C2.87694 108.488 3.05694 108.64 3.28094 108.752C3.50494 108.864 3.75694 108.92 4.03694 108.92ZM3.52094 124.168C2.96894 124.168 2.48894 124.068 2.08094 123.868C1.68094 123.668 1.34894 123.432 1.08494 123.16L2.02094 122.092C2.18094 122.276 2.38894 122.428 2.64494 122.548C2.90094 122.668 3.16094 122.728 3.42494 122.728C3.68094 122.728 3.92494 122.672 4.15694 122.56C4.38894 122.44 4.58894 122.252 4.75694 121.996C4.93294 121.732 5.06894 121.384 5.16494 120.952C5.26894 120.52 5.32094 119.988 5.32094 119.356C5.32094 118.596 5.24894 117.992 5.10494 117.544C4.96894 117.096 4.78494 116.776 4.55294 116.584C4.32094 116.384 4.05694 116.284 3.76094 116.284C3.54494 116.284 3.34494 116.344 3.16094 116.464C2.97694 116.584 2.82894 116.764 2.71694 117.004C2.61294 117.244 2.56094 117.548 2.56094 117.916C2.56094 118.26 2.61294 118.548 2.71694 118.78C2.82094 119.004 2.96494 119.172 3.14894 119.284C3.34094 119.396 3.56494 119.452 3.82094 119.452C4.06894 119.452 4.32494 119.376 4.58894 119.224C4.85294 119.072 5.09294 118.816 5.30894 118.456L5.39294 119.644C5.24094 119.86 5.05294 120.048 4.82894 120.208C4.61294 120.368 4.38894 120.492 4.15694 120.58C3.92494 120.668 3.70094 120.712 3.48494 120.712C2.99694 120.712 2.56094 120.612 2.17694 120.412C1.79294 120.204 1.48894 119.896 1.26494 119.488C1.04894 119.072 0.940938 118.548 0.940938 117.916C0.940938 117.308 1.06894 116.784 1.32494 116.344C1.58094 115.896 1.92094 115.552 2.34494 115.312C2.76894 115.072 3.23294 114.952 3.73694 114.952C4.16094 114.952 4.56094 115.04 4.93694 115.216C5.32094 115.384 5.66094 115.648 5.95694 116.008C6.26094 116.36 6.49694 116.816 6.66494 117.376C6.84094 117.928 6.92894 118.588 6.92894 119.356C6.92894 120.196 6.83694 120.92 6.65294 121.528C6.46894 122.128 6.21294 122.624 5.88494 123.016C5.56494 123.408 5.20094 123.7 4.79294 123.892C4.38494 124.076 3.96094 124.168 3.52094 124.168ZM4.00094 138.168C3.40094 138.168 2.87294 137.996 2.41694 137.652C1.96894 137.3 1.61694 136.78 1.36094 136.092C1.11294 135.396 0.988938 134.536 0.988938 133.512C0.988938 132.496 1.11294 131.652 1.36094 130.98C1.61694 130.3 1.96894 129.792 2.41694 129.456C2.87294 129.12 3.40094 128.952 4.00094 128.952C4.60894 128.952 5.13694 129.124 5.58494 129.468C6.03294 129.804 6.38094 130.308 6.62894 130.98C6.88494 131.652 7.01294 132.496 7.01294 133.512C7.01294 134.536 6.88494 135.396 6.62894 136.092C6.38094 136.78 6.03294 137.3 5.58494 137.652C5.13694 137.996 4.60894 138.168 4.00094 138.168ZM4.00094 136.788C4.26494 136.788 4.49694 136.688 4.69694 136.488C4.89694 136.288 5.05294 135.952 5.16494 135.48C5.27694 135 5.33294 134.344 5.33294 133.512C5.33294 132.688 5.27694 132.044 5.16494 131.58C5.05294 131.108 4.89694 130.78 4.69694 130.596C4.49694 130.404 4.26494 130.308 4.00094 130.308C3.75294 130.308 3.52494 130.404 3.31694 130.596C3.11694 130.78 2.95694 131.108 2.83694 131.58C2.71694 132.044 2.65694 132.688 2.65694 133.512C2.65694 134.344 2.71694 135 2.83694 135.48C2.95694 135.952 3.11694 136.288 3.31694 136.488C3.52494 136.688 3.75294 136.788 4.00094 136.788Z" fill="white"/>
<path d="M19.332 7.524C19.332 7.308 19.388 7.108 19.5 6.924C19.62 6.732 19.772 6.58 19.956 6.468C20.148 6.356 20.348 6.3 20.556 6.3C20.78 6.3 20.984 6.356 21.168 6.468C21.352 6.58 21.5 6.732 21.612 6.924C21.724 7.108 21.78 7.308 21.78 7.524C21.78 7.852 21.66 8.136 21.42 8.376C21.18 8.616 20.892 8.736 20.556 8.736C20.348 8.736 20.148 8.68 19.956 8.568C19.772 8.456 19.62 8.308 19.5 8.124C19.388 7.94 19.332 7.74 19.332 7.524ZM28.8711 6.492H39.0591V8.052H28.8711V6.492ZM42.3101 6.492H52.4981V8.052H42.3101V6.492ZM55.7492 6.492H65.9372V8.052H55.7492V6.492ZM69.1882 6.492H79.3762V8.052H69.1882V6.492ZM19.332 21.524C19.332 21.308 19.388 21.108 19.5 20.924C19.62 20.732 19.772 20.58 19.956 20.468C20.148 20.356 20.348 20.3 20.556 20.3C20.78 20.3 20.984 20.356 21.168 20.468C21.352 20.58 21.5 20.732 21.612 20.924C21.724 21.108 21.78 21.308 21.78 21.524C21.78 21.852 21.66 22.136 21.42 22.376C21.18 22.616 20.892 22.736 20.556 22.736C20.348 22.736 20.148 22.68 19.956 22.568C19.772 22.456 19.62 22.308 19.5 22.124C19.388 21.94 19.332 21.74 19.332 21.524ZM32.7711 21.524C32.7711 21.308 32.8271 21.108 32.9391 20.924C33.0591 20.732 33.2111 20.58 33.3951 20.468C33.5871 20.356 33.7871 20.3 33.9951 20.3C34.2191 20.3 34.4231 20.356 34.6071 20.468C34.7911 20.58 34.9391 20.732 35.0511 20.924C35.1631 21.108 35.2191 21.308 35.2191 21.524C35.2191 21.852 35.0991 22.136 34.8591 22.376C34.6191 22.616 34.3311 22.736 33.9951 22.736C33.7871 22.736 33.5871 22.68 33.3951 22.568C33.2111 22.456 33.0591 22.308 32.9391 22.124C32.8271 21.94 32.7711 21.74 32.7711 21.524ZM42.3101 20.492H52.4981V22.052H42.3101V20.492ZM55.7492 20.492H65.9372V22.052H55.7492V20.492ZM69.1882 20.492H79.3762V22.052H69.1882V20.492ZM19.332 35.524C19.332 35.308 19.388 35.108 19.5 34.924C19.62 34.732 19.772 34.58 19.956 34.468C20.148 34.356 20.348 34.3 20.556 34.3C20.78 34.3 20.984 34.356 21.168 34.468C21.352 34.58 21.5 34.732 21.612 34.924C21.724 35.108 21.78 35.308 21.78 35.524C21.78 35.852 21.66 36.136 21.42 36.376C21.18 36.616 20.892 36.736 20.556 36.736C20.348 36.736 20.148 36.68 19.956 36.568C19.772 36.456 19.62 36.308 19.5 36.124C19.388 35.94 19.332 35.74 19.332 35.524ZM32.7711 35.524C32.7711 35.308 32.8271 35.108 32.9391 34.924C33.0591 34.732 33.2111 34.58 33.3951 34.468C33.5871 34.356 33.7871 34.3 33.9951 34.3C34.2191 34.3 34.4231 34.356 34.6071 34.468C34.7911 34.58 34.9391 34.732 35.0511 34.924C35.1631 35.108 35.2191 35.308 35.2191 35.524C35.2191 35.852 35.0991 36.136 34.8591 36.376C34.6191 36.616 34.3311 36.736 33.9951 36.736C33.7871 36.736 33.5871 36.68 33.3951 36.568C33.2111 36.456 33.0591 36.308 32.9391 36.124C32.8271 35.94 32.7711 35.74 32.7711 35.524ZM46.2101 35.524C46.2101 35.308 46.2661 35.108 46.3781 34.924C46.4981 34.732 46.6501 34.58 46.8341 34.468C47.0261 34.356 47.2261 34.3 47.4341 34.3C47.6581 34.3 47.8621 34.356 48.0461 34.468C48.2301 34.58 48.3781 34.732 48.4901 34.924C48.6021 35.108 48.6581 35.308 48.6581 35.524C48.6581 35.852 48.5381 36.136 48.2981 36.376C48.0581 36.616 47.7701 36.736 47.4341 36.736C47.2261 36.736 47.0261 36.68 46.8341 36.568C46.6501 36.456 46.4981 36.308 46.3781 36.124C46.2661 35.94 46.2101 35.74 46.2101 35.524ZM55.7492 34.492H65.9372V36.052H55.7492V34.492ZM69.1882 34.492H79.3762V36.052H69.1882V34.492ZM19.332 49.524C19.332 49.308 19.388 49.108 19.5 48.924C19.62 48.732 19.772 48.58 19.956 48.468C20.148 48.356 20.348 48.3 20.556 48.3C20.78 48.3 20.984 48.356 21.168 48.468C21.352 48.58 21.5 48.732 21.612 48.924C21.724 49.108 21.78 49.308 21.78 49.524C21.78 49.852 21.66 50.136 21.42 50.376C21.18 50.616 20.892 50.736 20.556 50.736C20.348 50.736 20.148 50.68 19.956 50.568C19.772 50.456 19.62 50.308 19.5 50.124C19.388 49.94 19.332 49.74 19.332 49.524ZM32.7711 49.524C32.7711 49.308 32.8271 49.108 32.9391 48.924C33.0591 48.732 33.2111 48.58 33.3951 48.468C33.5871 48.356 33.7871 48.3 33.9951 48.3C34.2191 48.3 34.4231 48.356 34.6071 48.468C34.7911 48.58 34.9391 48.732 35.0511 48.924C35.1631 49.108 35.2191 49.308 35.2191 49.524C35.2191 49.852 35.0991 50.136 34.8591 50.376C34.6191 50.616 34.3311 50.736 33.9951 50.736C33.7871 50.736 33.5871 50.68 33.3951 50.568C33.2111 50.456 33.0591 50.308 32.9391 50.124C32.8271 49.94 32.7711 49.74 32.7711 49.524ZM46.2101 49.524C46.2101 49.308 46.2661 49.108 46.3781 48.924C46.4981 48.732 46.6501 48.58 46.8341 48.468C47.0261 48.356 47.2261 48.3 47.4341 48.3C47.6581 48.3 47.8621 48.356 48.0461 48.468C48.2301 48.58 48.3781 48.732 48.4901 48.924C48.6021 49.108 48.6581 49.308 48.6581 49.524C48.6581 49.852 48.5381 50.136 48.2981 50.376C48.0581 50.616 47.7701 50.736 47.4341 50.736C47.2261 50.736 47.0261 50.68 46.8341 50.568C46.6501 50.456 46.4981 50.308 46.3781 50.124C46.2661 49.94 46.2101 49.74 46.2101 49.524ZM59.6492 49.524C59.6492 49.308 59.7052 49.108 59.8172 48.924C59.9372 48.732 60.0892 48.58 60.2732 48.468C60.4652 48.356 60.6652 48.3 60.8732 48.3C61.0972 48.3 61.3012 48.356 61.4852 48.468C61.6692 48.58 61.8172 48.732 61.9292 48.924C62.0412 49.108 62.0972 49.308 62.0972 49.524C62.0972 49.852 61.9772 50.136 61.7372 50.376C61.4972 50.616 61.2092 50.736 60.8732 50.736C60.6652 50.736 60.4652 50.68 60.2732 50.568C60.0892 50.456 59.9372 50.308 59.8172 50.124C59.7052 49.94 59.6492 49.74 59.6492 49.524ZM69.1882 48.492H79.3762V50.052H69.1882V48.492ZM19.332 63.524C19.332 63.308 19.388 63.108 19.5 62.924C19.62 62.732 19.772 62.58 19.956 62.468C20.148 62.356 20.348 62.3 20.556 62.3C20.78 62.3 20.984 62.356 21.168 62.468C21.352 62.58 21.5 62.732 21.612 62.924C21.724 63.108 21.78 63.308 21.78 63.524C21.78 63.852 21.66 64.136 21.42 64.376C21.18 64.616 20.892 64.736 20.556 64.736C20.348 64.736 20.148 64.68 19.956 64.568C19.772 64.456 19.62 64.308 19.5 64.124C19.388 63.94 19.332 63.74 19.332 63.524ZM32.7711 63.524C32.7711 63.308 32.8271 63.108 32.9391 62.924C33.0591 62.732 33.2111 62.58 33.3951 62.468C33.5871 62.356 33.7871 62.3 33.9951 62.3C34.2191 62.3 34.4231 62.356 34.6071 62.468C34.7911 62.58 34.9391 62.732 35.0511 62.924C35.1631 63.108 35.2191 63.308 35.2191 63.524C35.2191 63.852 35.0991 64.136 34.8591 64.376C34.6191 64.616 34.3311 64.736 33.9951 64.736C33.7871 64.736 33.5871 64.68 33.3951 64.568C33.2111 64.456 33.0591 64.308 32.9391 64.124C32.8271 63.94 32.7711 63.74 32.7711 63.524ZM46.2101 63.524C46.2101 63.308 46.2661 63.108 46.3781 62.924C46.4981 62.732 46.6501 62.58 46.8341 62.468C47.0261 62.356 47.2261 62.3 47.4341 62.3C47.6581 62.3 47.8621 62.356 48.0461 62.468C48.2301 62.58 48.3781 62.732 48.4901 62.924C48.6021 63.108 48.6581 63.308 48.6581 63.524C48.6581 63.852 48.5381 64.136 48.2981 64.376C48.0581 64.616 47.7701 64.736 47.4341 64.736C47.2261 64.736 47.0261 64.68 46.8341 64.568C46.6501 64.456 46.4981 64.308 46.3781 64.124C46.2661 63.94 46.2101 63.74 46.2101 63.524ZM59.6492 63.524C59.6492 63.308 59.7052 63.108 59.8172 62.924C59.9372 62.732 60.0892 62.58 60.2732 62.468C60.4652 62.356 60.6652 62.3 60.8732 62.3C61.0972 62.3 61.3012 62.356 61.4852 62.468C61.6692 62.58 61.8172 62.732 61.9292 62.924C62.0412 63.108 62.0972 63.308 62.0972 63.524C62.0972 63.852 61.9772 64.136 61.7372 64.376C61.4972 64.616 61.2092 64.736 60.8732 64.736C60.6652 64.736 60.4652 64.68 60.2732 64.568C60.0892 64.456 59.9372 64.308 59.8172 64.124C59.7052 63.94 59.6492 63.74 59.6492 63.524ZM73.0882 63.524C73.0882 63.308 73.1442 63.108 73.2562 62.924C73.3762 62.732 73.5282 62.58 73.7122 62.468C73.9042 62.356 74.1042 62.3 74.3122 62.3C74.5362 62.3 74.7402 62.356 74.9242 62.468C75.1082 62.58 75.2562 62.732 75.3682 62.924C75.4802 63.108 75.5362 63.308 75.5362 63.524C75.5362 63.852 75.4162 64.136 75.1762 64.376C74.9362 64.616 74.6482 64.736 74.3122 64.736C74.1042 64.736 73.9042 64.68 73.7122 64.568C73.5282 64.456 73.3762 64.308 73.2562 64.124C73.1442 63.94 73.0882 63.74 73.0882 63.524ZM15.432 76.492H25.62V78.052H15.432V76.492ZM32.7711 77.524C32.7711 77.308 32.8271 77.108 32.9391 76.924C33.0591 76.732 33.2111 76.58 33.3951 76.468C33.5871 76.356 33.7871 76.3 33.9951 76.3C34.2191 76.3 34.4231 76.356 34.6071 76.468C34.7911 76.58 34.9391 76.732 35.0511 76.924C35.1631 77.108 35.2191 77.308 35.2191 77.524C35.2191 77.852 35.0991 78.136 34.8591 78.376C34.6191 78.616 34.3311 78.736 33.9951 78.736C33.7871 78.736 33.5871 78.68 33.3951 78.568C33.2111 78.456 33.0591 78.308 32.9391 78.124C32.8271 77.94 32.7711 77.74 32.7711 77.524ZM46.2101 77.524C46.2101 77.308 46.2661 77.108 46.3781 76.924C46.4981 76.732 46.6501 76.58 46.8341 76.468C47.0261 76.356 47.2261 76.3 47.4341 76.3C47.6581 76.3 47.8621 76.356 48.0461 76.468C48.2301 76.58 48.3781 76.732 48.4901 76.924C48.6021 77.108 48.6581 77.308 48.6581 77.524C48.6581 77.852 48.5381 78.136 48.2981 78.376C48.0581 78.616 47.7701 78.736 47.4341 78.736C47.2261 78.736 47.0261 78.68 46.8341 78.568C46.6501 78.456 46.4981 78.308 46.3781 78.124C46.2661 77.94 46.2101 77.74 46.2101 77.524ZM59.6492 77.524C59.6492 77.308 59.7052 77.108 59.8172 76.924C59.9372 76.732 60.0892 76.58 60.2732 76.468C60.4652 76.356 60.6652 76.3 60.8732 76.3C61.0972 76.3 61.3012 76.356 61.4852 76.468C61.6692 76.58 61.8172 76.732 61.9292 76.924C62.0412 77.108 62.0972 77.308 62.0972 77.524C62.0972 77.852 61.9772 78.136 61.7372 78.376C61.4972 78.616 61.2092 78.736 60.8732 78.736C60.6652 78.736 60.4652 78.68 60.2732 78.568C60.0892 78.456 59.9372 78.308 59.8172 78.124C59.7052 77.94 59.6492 77.74 59.6492 77.524ZM73.0882 77.524C73.0882 77.308 73.1442 77.108 73.2562 76.924C73.3762 76.732 73.5282 76.58 73.7122 76.468C73.9042 76.356 74.1042 76.3 74.3122 76.3C74.5362 76.3 74.7402 76.356 74.9242 76.468C75.1082 76.58 75.2562 76.732 75.3682 76.924C75.4802 77.108 75.5362 77.308 75.5362 77.524C75.5362 77.852 75.4162 78.136 75.1762 78.376C74.9362 78.616 74.6482 78.736 74.3122 78.736C74.1042 78.736 73.9042 78.68 73.7122 78.568C73.5282 78.456 73.3762 78.308 73.2562 78.124C73.1442 77.94 73.0882 77.74 73.0882 77.524ZM15.432 90.492H25.62V92.052H15.432V90.492ZM28.8711 90.492H39.0591V92.052H28.8711V90.492ZM46.2101 91.524C46.2101 91.308 46.2661 91.108 46.3781 90.924C46.4981 90.732 46.6501 90.58 46.8341 90.468C47.0261 90.356 47.2261 90.3 47.4341 90.3C47.6581 90.3 47.8621 90.356 48.0461 90.468C48.2301 90.58 48.3781 90.732 48.4901 90.924C48.6021 91.108 48.6581 91.308 48.6581 91.524C48.6581 91.852 48.5381 92.136 48.2981 92.376C48.0581 92.616 47.7701 92.736 47.4341 92.736C47.2261 92.736 47.0261 92.68 46.8341 92.568C46.6501 92.456 46.4981 92.308 46.3781 92.124C46.2661 91.94 46.2101 91.74 46.2101 91.524ZM59.6492 91.524C59.6492 91.308 59.7052 91.108 59.8172 90.924C59.9372 90.732 60.0892 90.58 60.2732 90.468C60.4652 90.356 60.6652 90.3 60.8732 90.3C61.0972 90.3 61.3012 90.356 61.4852 90.468C61.6692 90.58 61.8172 90.732 61.9292 90.924C62.0412 91.108 62.0972 91.308 62.0972 91.524C62.0972 91.852 61.9772 92.136 61.7372 92.376C61.4972 92.616 61.2092 92.736 60.8732 92.736C60.6652 92.736 60.4652 92.68 60.2732 92.568C60.0892 92.456 59.9372 92.308 59.8172 92.124C59.7052 91.94 59.6492 91.74 59.6492 91.524ZM73.0882 91.524C73.0882 91.308 73.1442 91.108 73.2562 90.924C73.3762 90.732 73.5282 90.58 73.7122 90.468C73.9042 90.356 74.1042 90.3 74.3122 90.3C74.5362 90.3 74.7402 90.356 74.9242 90.468C75.1082 90.58 75.2562 90.732 75.3682 90.924C75.4802 91.108 75.5362 91.308 75.5362 91.524C75.5362 91.852 75.4162 92.136 75.1762 92.376C74.9362 92.616 74.6482 92.736 74.3122 92.736C74.1042 92.736 73.9042 92.68 73.7122 92.568C73.5282 92.456 73.3762 92.308 73.2562 92.124C73.1442 91.94 73.0882 91.74 73.0882 91.524ZM15.432 104.492H25.62V106.052H15.432V104.492ZM28.8711 104.492H39.0591V106.052H28.8711V104.492ZM42.3101 104.492H52.4981V106.052H42.3101V104.492ZM59.6492 105.524C59.6492 105.308 59.7052 105.108 59.8172 104.924C59.9372 104.732 60.0892 104.58 60.2732 104.468C60.4652 104.356 60.6652 104.3 60.8732 104.3C61.0972 104.3 61.3012 104.356 61.4852 104.468C61.6692 104.58 61.8172 104.732 61.9292 104.924C62.0412 105.108 62.0972 105.308 62.0972 105.524C62.0972 105.852 61.9772 106.136 61.7372 106.376C61.4972 106.616 61.2092 106.736 60.8732 106.736C60.6652 106.736 60.4652 106.68 60.2732 106.568C60.0892 106.456 59.9372 106.308 59.8172 106.124C59.7052 105.94 59.6492 105.74 59.6492 105.524ZM73.0882 105.524C73.0882 105.308 73.1442 105.108 73.2562 104.924C73.3762 104.732 73.5282 104.58 73.7122 104.468C73.9042 104.356 74.1042 104.3 74.3122 104.3C74.5362 104.3 74.7402 104.356 74.9242 104.468C75.1082 104.58 75.2562 104.732 75.3682 104.924C75.4802 105.108 75.5362 105.308 75.5362 105.524C75.5362 105.852 75.4162 106.136 75.1762 106.376C74.9362 106.616 74.6482 106.736 74.3122 106.736C74.1042 106.736 73.9042 106.68 73.7122 106.568C73.5282 106.456 73.3762 106.308 73.2562 106.124C73.1442 105.94 73.0882 105.74 73.0882 105.524ZM15.432 118.492H25.62V120.052H15.432V118.492ZM28.8711 118.492H39.0591V120.052H28.8711V118.492ZM42.3101 118.492H52.4981V120.052H42.3101V118.492ZM55.7492 118.492H65.9372V120.052H55.7492V118.492ZM73.0882 119.524C73.0882 119.308 73.1442 119.108 73.2562 118.924C73.3762 118.732 73.5282 118.58 73.7122 118.468C73.9042 118.356 74.1042 118.3 74.3122 118.3C74.5362 118.3 74.7402 118.356 74.9242 118.468C75.1082 118.58 75.2562 118.732 75.3682 118.924C75.4802 119.108 75.5362 119.308 75.5362 119.524C75.5362 119.852 75.4162 120.136 75.1762 120.376C74.9362 120.616 74.6482 120.736 74.3122 120.736C74.1042 120.736 73.9042 120.68 73.7122 120.568C73.5282 120.456 73.3762 120.308 73.2562 120.124C73.1442 119.94 73.0882 119.74 73.0882 119.524ZM15.432 132.492H25.62V134.052H15.432V132.492ZM28.8711 132.492H39.0591V134.052H28.8711V132.492ZM42.3101 132.492H52.4981V134.052H42.3101V132.492ZM55.7492 132.492H65.9372V134.052H55.7492V132.492ZM69.1882 132.492H79.3762V134.052H69.1882V132.492Z" fill="white"/>
<path d="M134.005 12.168C133.685 12.168 133.421 12.056 133.213 11.832C133.005 11.608 132.901 11.336 132.901 11.016C132.901 10.68 133.005 10.404 133.213 10.188C133.421 9.972 133.685 9.864 134.005 9.864C134.317 9.864 134.577 9.972 134.785 10.188C134.993 10.404 135.097 10.68 135.097 11.016C135.097 11.336 134.993 11.608 134.785 11.832C134.577 12.056 134.317 12.168 134.005 12.168ZM133.057 28.568L132.685 27.608C133.149 27.424 133.505 27.184 133.753 26.888C134.009 26.592 134.137 26.268 134.137 25.916L134.077 24.656L134.701 25.7C134.605 25.788 134.497 25.852 134.377 25.892C134.265 25.932 134.145 25.952 134.017 25.952C133.729 25.952 133.473 25.864 133.249 25.688C133.025 25.504 132.913 25.244 132.913 24.908C132.913 24.596 133.025 24.344 133.249 24.152C133.473 23.96 133.745 23.864 134.065 23.864C134.465 23.864 134.773 24.02 134.989 24.332C135.213 24.636 135.325 25.06 135.325 25.604C135.325 26.308 135.129 26.916 134.737 27.428C134.345 27.94 133.785 28.32 133.057 28.568ZM133.042 36.976C132.986 36.584 133.006 36.236 133.102 35.932C133.206 35.628 133.35 35.356 133.534 35.116C133.718 34.868 133.906 34.636 134.098 34.42C134.29 34.204 134.454 33.992 134.59 33.784C134.726 33.576 134.794 33.356 134.794 33.124C134.794 32.924 134.75 32.752 134.662 32.608C134.582 32.456 134.466 32.34 134.314 32.26C134.17 32.18 133.99 32.14 133.774 32.14C133.51 32.14 133.27 32.204 133.054 32.332C132.838 32.452 132.634 32.616 132.442 32.824L131.458 31.924C131.77 31.564 132.138 31.272 132.562 31.048C132.994 30.824 133.47 30.712 133.99 30.712C134.47 30.712 134.898 30.796 135.274 30.964C135.658 31.132 135.958 31.388 136.174 31.732C136.39 32.068 136.498 32.492 136.498 33.004C136.498 33.348 136.426 33.652 136.282 33.916C136.146 34.18 135.974 34.428 135.766 34.66C135.566 34.884 135.366 35.108 135.166 35.332C134.974 35.556 134.818 35.8 134.698 36.064C134.578 36.328 134.538 36.632 134.578 36.976H133.042ZM133.822 40.168C133.502 40.168 133.238 40.056 133.03 39.832C132.822 39.608 132.718 39.336 132.718 39.016C132.718 38.68 132.822 38.404 133.03 38.188C133.238 37.972 133.502 37.864 133.822 37.864C134.134 37.864 134.394 37.972 134.602 38.188C134.81 38.404 134.914 38.68 134.914 39.016C134.914 39.336 134.81 39.608 134.602 39.832C134.394 40.056 134.134 40.168 133.822 40.168ZM131.848 56.172L134.836 44.328H136L133.024 56.172H131.848ZM134.005 63.608C133.685 63.608 133.421 63.5 133.213 63.284C133.005 63.06 132.901 62.788 132.901 62.468C132.901 62.132 133.005 61.856 133.213 61.64C133.421 61.424 133.685 61.316 134.005 61.316C134.317 61.316 134.577 61.424 134.785 61.64C134.993 61.856 135.097 62.132 135.097 62.468C135.097 62.788 134.993 63.06 134.785 63.284C134.577 63.5 134.317 63.608 134.005 63.608ZM134.005 68.168C133.685 68.168 133.421 68.056 133.213 67.832C133.005 67.608 132.901 67.336 132.901 67.016C132.901 66.68 133.005 66.404 133.213 66.188C133.421 65.972 133.685 65.864 134.005 65.864C134.317 65.864 134.577 65.972 134.785 66.188C134.993 66.404 135.097 66.68 135.097 67.016C135.097 67.336 134.993 67.608 134.785 67.832C134.577 68.056 134.317 68.168 134.005 68.168ZM134.005 77.608C133.685 77.608 133.421 77.5 133.213 77.284C133.005 77.06 132.901 76.788 132.901 76.468C132.901 76.132 133.005 75.856 133.213 75.64C133.421 75.424 133.685 75.316 134.005 75.316C134.317 75.316 134.577 75.424 134.785 75.64C134.993 75.856 135.097 76.132 135.097 76.468C135.097 76.788 134.993 77.06 134.785 77.284C134.577 77.5 134.317 77.608 134.005 77.608ZM133.057 84.568L132.685 83.608C133.149 83.424 133.505 83.184 133.753 82.888C134.009 82.592 134.137 82.268 134.137 81.916L134.077 80.656L134.701 81.7C134.605 81.788 134.497 81.852 134.377 81.892C134.265 81.932 134.145 81.952 134.017 81.952C133.729 81.952 133.473 81.864 133.249 81.688C133.025 81.504 132.913 81.244 132.913 80.908C132.913 80.596 133.025 80.344 133.249 80.152C133.473 79.96 133.745 79.864 134.065 79.864C134.465 79.864 134.773 80.02 134.989 80.332C135.213 80.636 135.325 81.06 135.325 81.604C135.325 82.308 135.129 82.916 134.737 83.428C134.345 83.94 133.785 84.32 133.057 84.568ZM134.552 98.424C133.984 97.496 133.54 96.528 133.22 95.52C132.908 94.512 132.752 93.412 132.752 92.22C132.752 91.02 132.908 89.916 133.22 88.908C133.54 87.9 133.984 86.932 134.552 86.004L135.644 86.472C135.14 87.352 134.768 88.284 134.528 89.268C134.296 90.252 134.18 91.236 134.18 92.22C134.18 93.204 134.296 94.188 134.528 95.172C134.768 96.156 135.14 97.084 135.644 97.956L134.552 98.424ZM133.448 112.424L132.356 111.956C132.86 111.084 133.228 110.156 133.46 109.172C133.7 108.188 133.82 107.204 133.82 106.22C133.82 105.236 133.7 104.252 133.46 103.268C133.228 102.284 132.86 101.352 132.356 100.472L133.448 100.004C134.016 100.932 134.456 101.9 134.768 102.908C135.088 103.916 135.248 105.02 135.248 106.22C135.248 107.412 135.088 108.512 134.768 109.52C134.456 110.528 134.016 111.496 133.448 112.424ZM133.969 119.056C133.593 119.056 133.301 118.916 133.093 118.636C132.893 118.348 132.793 117.944 132.793 117.424C132.793 116.808 132.945 116.272 133.249 115.816C133.553 115.352 134.005 114.964 134.605 114.652L135.013 115.432C134.621 115.64 134.325 115.88 134.125 116.152C133.933 116.424 133.837 116.76 133.837 117.16L133.921 118.264L133.285 117.412C133.389 117.324 133.497 117.256 133.609 117.208C133.721 117.152 133.841 117.124 133.969 117.124C134.233 117.124 134.457 117.208 134.641 117.376C134.825 117.536 134.917 117.76 134.917 118.048C134.917 118.352 134.829 118.596 134.653 118.78C134.477 118.964 134.249 119.056 133.969 119.056ZM132.475 133.056C132.099 133.056 131.807 132.916 131.599 132.636C131.399 132.348 131.299 131.944 131.299 131.424C131.299 130.808 131.451 130.272 131.755 129.816C132.059 129.352 132.511 128.964 133.111 128.652L133.519 129.432C133.127 129.64 132.831 129.88 132.631 130.152C132.439 130.424 132.343 130.76 132.343 131.16L132.427 132.264L131.791 131.412C131.895 131.324 132.003 131.256 132.115 131.208C132.227 131.152 132.347 131.124 132.475 131.124C132.739 131.124 132.963 131.208 133.147 131.376C133.331 131.536 133.423 131.76 133.423 132.048C133.423 132.352 133.335 132.596 133.159 132.78C132.983 132.964 132.755 133.056 132.475 133.056ZM135.475 133.056C135.099 133.056 134.807 132.916 134.599 132.636C134.399 132.348 134.299 131.944 134.299 131.424C134.299 130.808 134.451 130.272 134.755 129.816C135.059 129.352 135.511 128.964 136.111 128.652L136.519 129.432C136.127 129.64 135.835 129.88 135.643 130.152C135.451 130.424 135.355 130.76 135.355 131.16L135.427 132.264L134.791 131.412C134.895 131.324 135.003 131.256 135.115 131.208C135.227 131.152 135.347 131.124 135.475 131.124C135.739 131.124 135.963 131.208 136.147 131.376C136.331 131.536 136.423 131.76 136.423 132.048C136.423 132.352 136.335 132.596 136.159 132.78C135.983 132.964 135.755 133.056 135.475 133.056ZM130.929 146.576V145.328H137.073V146.576H130.929ZM130.929 149.684V148.424H137.073V149.684H130.929ZM133.341 164.68V162.136H130.929V160.876H133.341V158.32H134.649V160.876H137.073V162.136H134.649V164.68H133.341ZM132.367 177.204V175.932H135.643V177.204H132.367ZM130.764 195.86V194.84H137.232V195.86H130.764Z" fill="white"/>
<path d="M149.332 7.524C149.332 7.308 149.388 7.108 149.5 6.924C149.62 6.732 149.772 6.58 149.956 6.468C150.148 6.356 150.348 6.3 150.556 6.3C150.78 6.3 150.984 6.356 151.168 6.468C151.352 6.58 151.5 6.732 151.612 6.924C151.724 7.108 151.78 7.308 151.78 7.524C151.78 7.852 151.66 8.136 151.42 8.376C151.18 8.616 150.892 8.736 150.556 8.736C150.348 8.736 150.148 8.68 149.956 8.568C149.772 8.456 149.62 8.308 149.5 8.124C149.388 7.94 149.332 7.74 149.332 7.524ZM158.871 6.492H169.059V8.052H158.871V6.492ZM176.21 7.524C176.21 7.308 176.266 7.108 176.378 6.924C176.498 6.732 176.65 6.58 176.834 6.468C177.026 6.356 177.226 6.3 177.434 6.3C177.658 6.3 177.862 6.356 178.046 6.468C178.23 6.58 178.378 6.732 178.49 6.924C178.602 7.108 178.658 7.308 178.658 7.524C178.658 7.852 178.538 8.136 178.298 8.376C178.058 8.616 177.77 8.736 177.434 8.736C177.226 8.736 177.026 8.68 176.834 8.568C176.65 8.456 176.498 8.308 176.378 8.124C176.266 7.94 176.21 7.74 176.21 7.524ZM185.749 6.492H195.937V8.052H185.749V6.492ZM203.088 7.524C203.088 7.308 203.144 7.108 203.256 6.924C203.376 6.732 203.528 6.58 203.712 6.468C203.904 6.356 204.104 6.3 204.312 6.3C204.536 6.3 204.74 6.356 204.924 6.468C205.108 6.58 205.256 6.732 205.368 6.924C205.48 7.108 205.536 7.308 205.536 7.524C205.536 7.852 205.416 8.136 205.176 8.376C204.936 8.616 204.648 8.736 204.312 8.736C204.104 8.736 203.904 8.68 203.712 8.568C203.528 8.456 203.376 8.308 203.256 8.124C203.144 7.94 203.088 7.74 203.088 7.524ZM212.627 6.492H222.815V8.052H212.627V6.492ZM145.432 20.492H155.62V22.052H145.432V20.492ZM158.871 20.492H169.059V22.052H158.871V20.492ZM176.21 21.524C176.21 21.308 176.266 21.108 176.378 20.924C176.498 20.732 176.65 20.58 176.834 20.468C177.026 20.356 177.226 20.3 177.434 20.3C177.658 20.3 177.862 20.356 178.046 20.468C178.23 20.58 178.378 20.732 178.49 20.924C178.602 21.108 178.658 21.308 178.658 21.524C178.658 21.852 178.538 22.136 178.298 22.376C178.058 22.616 177.77 22.736 177.434 22.736C177.226 22.736 177.026 22.68 176.834 22.568C176.65 22.456 176.498 22.308 176.378 22.124C176.266 21.94 176.21 21.74 176.21 21.524ZM189.649 21.524C189.649 21.308 189.705 21.108 189.817 20.924C189.937 20.732 190.089 20.58 190.273 20.468C190.465 20.356 190.665 20.3 190.873 20.3C191.097 20.3 191.301 20.356 191.485 20.468C191.669 20.58 191.817 20.732 191.929 20.924C192.041 21.108 192.097 21.308 192.097 21.524C192.097 21.852 191.977 22.136 191.737 22.376C191.497 22.616 191.209 22.736 190.873 22.736C190.665 22.736 190.465 22.68 190.273 22.568C190.089 22.456 189.937 22.308 189.817 22.124C189.705 21.94 189.649 21.74 189.649 21.524ZM199.188 20.492H209.376V22.052H199.188V20.492ZM212.627 20.492H222.815V22.052H212.627V20.492ZM149.332 35.524C149.332 35.308 149.388 35.108 149.5 34.924C149.62 34.732 149.772 34.58 149.956 34.468C150.148 34.356 150.348 34.3 150.556 34.3C150.78 34.3 150.984 34.356 151.168 34.468C151.352 34.58 151.5 34.732 151.612 34.924C151.724 35.108 151.78 35.308 151.78 35.524C151.78 35.852 151.66 36.136 151.42 36.376C151.18 36.616 150.892 36.736 150.556 36.736C150.348 36.736 150.148 36.68 149.956 36.568C149.772 36.456 149.62 36.308 149.5 36.124C149.388 35.94 149.332 35.74 149.332 35.524ZM162.771 35.524C162.771 35.308 162.827 35.108 162.939 34.924C163.059 34.732 163.211 34.58 163.395 34.468C163.587 34.356 163.787 34.3 163.995 34.3C164.219 34.3 164.423 34.356 164.607 34.468C164.791 34.58 164.939 34.732 165.051 34.924C165.163 35.108 165.219 35.308 165.219 35.524C165.219 35.852 165.099 36.136 164.859 36.376C164.619 36.616 164.331 36.736 163.995 36.736C163.787 36.736 163.587 36.68 163.395 36.568C163.211 36.456 163.059 36.308 162.939 36.124C162.827 35.94 162.771 35.74 162.771 35.524ZM172.31 34.492H182.498V36.052H172.31V34.492ZM185.749 34.492H195.937V36.052H185.749V34.492ZM203.088 35.524C203.088 35.308 203.144 35.108 203.256 34.924C203.376 34.732 203.528 34.58 203.712 34.468C203.904 34.356 204.104 34.3 204.312 34.3C204.536 34.3 204.74 34.356 204.924 34.468C205.108 34.58 205.256 34.732 205.368 34.924C205.48 35.108 205.536 35.308 205.536 35.524C205.536 35.852 205.416 36.136 205.176 36.376C204.936 36.616 204.648 36.736 204.312 36.736C204.104 36.736 203.904 36.68 203.712 36.568C203.528 36.456 203.376 36.308 203.256 36.124C203.144 35.94 203.088 35.74 203.088 35.524ZM216.527 35.524C216.527 35.308 216.583 35.108 216.695 34.924C216.815 34.732 216.967 34.58 217.151 34.468C217.343 34.356 217.543 34.3 217.751 34.3C217.975 34.3 218.179 34.356 218.363 34.468C218.547 34.58 218.695 34.732 218.807 34.924C218.919 35.108 218.975 35.308 218.975 35.524C218.975 35.852 218.855 36.136 218.615 36.376C218.375 36.616 218.087 36.736 217.751 36.736C217.543 36.736 217.343 36.68 217.151 36.568C216.967 36.456 216.815 36.308 216.695 36.124C216.583 35.94 216.527 35.74 216.527 35.524ZM145.432 48.492H155.62V50.052H145.432V48.492ZM162.771 49.524C162.771 49.308 162.827 49.108 162.939 48.924C163.059 48.732 163.211 48.58 163.395 48.468C163.587 48.356 163.787 48.3 163.995 48.3C164.219 48.3 164.423 48.356 164.607 48.468C164.791 48.58 164.939 48.732 165.051 48.924C165.163 49.108 165.219 49.308 165.219 49.524C165.219 49.852 165.099 50.136 164.859 50.376C164.619 50.616 164.331 50.736 163.995 50.736C163.787 50.736 163.587 50.68 163.395 50.568C163.211 50.456 163.059 50.308 162.939 50.124C162.827 49.94 162.771 49.74 162.771 49.524ZM176.21 49.524C176.21 49.308 176.266 49.108 176.378 48.924C176.498 48.732 176.65 48.58 176.834 48.468C177.026 48.356 177.226 48.3 177.434 48.3C177.658 48.3 177.862 48.356 178.046 48.468C178.23 48.58 178.378 48.732 178.49 48.924C178.602 49.108 178.658 49.308 178.658 49.524C178.658 49.852 178.538 50.136 178.298 50.376C178.058 50.616 177.77 50.736 177.434 50.736C177.226 50.736 177.026 50.68 176.834 50.568C176.65 50.456 176.498 50.308 176.378 50.124C176.266 49.94 176.21 49.74 176.21 49.524ZM185.749 48.492H195.937V50.052H185.749V48.492ZM203.088 49.524C203.088 49.308 203.144 49.108 203.256 48.924C203.376 48.732 203.528 48.58 203.712 48.468C203.904 48.356 204.104 48.3 204.312 48.3C204.536 48.3 204.74 48.356 204.924 48.468C205.108 48.58 205.256 48.732 205.368 48.924C205.48 49.108 205.536 49.308 205.536 49.524C205.536 49.852 205.416 50.136 205.176 50.376C204.936 50.616 204.648 50.736 204.312 50.736C204.104 50.736 203.904 50.68 203.712 50.568C203.528 50.456 203.376 50.308 203.256 50.124C203.144 49.94 203.088 49.74 203.088 49.524ZM145.432 62.492H155.62V64.052H145.432V62.492ZM158.871 62.492H169.059V64.052H158.871V62.492ZM172.31 62.492H182.498V64.052H172.31V62.492ZM189.649 63.524C189.649 63.308 189.705 63.108 189.817 62.924C189.937 62.732 190.089 62.58 190.273 62.468C190.465 62.356 190.665 62.3 190.873 62.3C191.097 62.3 191.301 62.356 191.485 62.468C191.669 62.58 191.817 62.732 191.929 62.924C192.041 63.108 192.097 63.308 192.097 63.524C192.097 63.852 191.977 64.136 191.737 64.376C191.497 64.616 191.209 64.736 190.873 64.736C190.665 64.736 190.465 64.68 190.273 64.568C190.089 64.456 189.937 64.308 189.817 64.124C189.705 63.94 189.649 63.74 189.649 63.524ZM203.088 63.524C203.088 63.308 203.144 63.108 203.256 62.924C203.376 62.732 203.528 62.58 203.712 62.468C203.904 62.356 204.104 62.3 204.312 62.3C204.536 62.3 204.74 62.356 204.924 62.468C205.108 62.58 205.256 62.732 205.368 62.924C205.48 63.108 205.536 63.308 205.536 63.524C205.536 63.852 205.416 64.136 205.176 64.376C204.936 64.616 204.648 64.736 204.312 64.736C204.104 64.736 203.904 64.68 203.712 64.568C203.528 64.456 203.376 64.308 203.256 64.124C203.144 63.94 203.088 63.74 203.088 63.524ZM216.527 63.524C216.527 63.308 216.583 63.108 216.695 62.924C216.815 62.732 216.967 62.58 217.151 62.468C217.343 62.356 217.543 62.3 217.751 62.3C217.975 62.3 218.179 62.356 218.363 62.468C218.547 62.58 218.695 62.732 218.807 62.924C218.919 63.108 218.975 63.308 218.975 63.524C218.975 63.852 218.855 64.136 218.615 64.376C218.375 64.616 218.087 64.736 217.751 64.736C217.543 64.736 217.343 64.68 217.151 64.568C216.967 64.456 216.815 64.308 216.695 64.124C216.583 63.94 216.527 63.74 216.527 63.524ZM145.432 76.492H155.62V78.052H145.432V76.492ZM162.771 77.524C162.771 77.308 162.827 77.108 162.939 76.924C163.059 76.732 163.211 76.58 163.395 76.468C163.587 76.356 163.787 76.3 163.995 76.3C164.219 76.3 164.423 76.356 164.607 76.468C164.791 76.58 164.939 76.732 165.051 76.924C165.163 77.108 165.219 77.308 165.219 77.524C165.219 77.852 165.099 78.136 164.859 78.376C164.619 78.616 164.331 78.736 163.995 78.736C163.787 78.736 163.587 78.68 163.395 78.568C163.211 78.456 163.059 78.308 162.939 78.124C162.827 77.94 162.771 77.74 162.771 77.524ZM172.31 76.492H182.498V78.052H172.31V76.492ZM189.649 77.524C189.649 77.308 189.705 77.108 189.817 76.924C189.937 76.732 190.089 76.58 190.273 76.468C190.465 76.356 190.665 76.3 190.873 76.3C191.097 76.3 191.301 76.356 191.485 76.468C191.669 76.58 191.817 76.732 191.929 76.924C192.041 77.108 192.097 77.308 192.097 77.524C192.097 77.852 191.977 78.136 191.737 78.376C191.497 78.616 191.209 78.736 190.873 78.736C190.665 78.736 190.465 78.68 190.273 78.568C190.089 78.456 189.937 78.308 189.817 78.124C189.705 77.94 189.649 77.74 189.649 77.524ZM199.188 76.492H209.376V78.052H199.188V76.492ZM216.527 77.524C216.527 77.308 216.583 77.108 216.695 76.924C216.815 76.732 216.967 76.58 217.151 76.468C217.343 76.356 217.543 76.3 217.751 76.3C217.975 76.3 218.179 76.356 218.363 76.468C218.547 76.58 218.695 76.732 218.807 76.924C218.919 77.108 218.975 77.308 218.975 77.524C218.975 77.852 218.855 78.136 218.615 78.376C218.375 78.616 218.087 78.736 217.751 78.736C217.543 78.736 217.343 78.68 217.151 78.568C216.967 78.456 216.815 78.308 216.695 78.124C216.583 77.94 216.527 77.74 216.527 77.524ZM145.432 90.492H155.62V92.052H145.432V90.492ZM162.771 91.524C162.771 91.308 162.827 91.108 162.939 90.924C163.059 90.732 163.211 90.58 163.395 90.468C163.587 90.356 163.787 90.3 163.995 90.3C164.219 90.3 164.423 90.356 164.607 90.468C164.791 90.58 164.939 90.732 165.051 90.924C165.163 91.108 165.219 91.308 165.219 91.524C165.219 91.852 165.099 92.136 164.859 92.376C164.619 92.616 164.331 92.736 163.995 92.736C163.787 92.736 163.587 92.68 163.395 92.568C163.211 92.456 163.059 92.308 162.939 92.124C162.827 91.94 162.771 91.74 162.771 91.524ZM172.31 90.492H182.498V92.052H172.31V90.492ZM185.749 90.492H195.937V92.052H185.749V90.492ZM203.088 91.524C203.088 91.308 203.144 91.108 203.256 90.924C203.376 90.732 203.528 90.58 203.712 90.468C203.904 90.356 204.104 90.3 204.312 90.3C204.536 90.3 204.74 90.356 204.924 90.468C205.108 90.58 205.256 90.732 205.368 90.924C205.48 91.108 205.536 91.308 205.536 91.524C205.536 91.852 205.416 92.136 205.176 92.376C204.936 92.616 204.648 92.736 204.312 92.736C204.104 92.736 203.904 92.68 203.712 92.568C203.528 92.456 203.376 92.308 203.256 92.124C203.144 91.94 203.088 91.74 203.088 91.524ZM145.432 104.492H155.62V106.052H145.432V104.492ZM162.771 105.524C162.771 105.308 162.827 105.108 162.939 104.924C163.059 104.732 163.211 104.58 163.395 104.468C163.587 104.356 163.787 104.3 163.995 104.3C164.219 104.3 164.423 104.356 164.607 104.468C164.791 104.58 164.939 104.732 165.051 104.924C165.163 105.108 165.219 105.308 165.219 105.524C165.219 105.852 165.099 106.136 164.859 106.376C164.619 106.616 164.331 106.736 163.995 106.736C163.787 106.736 163.587 106.68 163.395 106.568C163.211 106.456 163.059 106.308 162.939 106.124C162.827 105.94 162.771 105.74 162.771 105.524ZM172.31 104.492H182.498V106.052H172.31V104.492ZM185.749 104.492H195.937V106.052H185.749V104.492ZM203.088 105.524C203.088 105.308 203.144 105.108 203.256 104.924C203.376 104.732 203.528 104.58 203.712 104.468C203.904 104.356 204.104 104.3 204.312 104.3C204.536 104.3 204.74 104.356 204.924 104.468C205.108 104.58 205.256 104.732 205.368 104.924C205.48 105.108 205.536 105.308 205.536 105.524C205.536 105.852 205.416 106.136 205.176 106.376C204.936 106.616 204.648 106.736 204.312 106.736C204.104 106.736 203.904 106.68 203.712 106.568C203.528 106.456 203.376 106.308 203.256 106.124C203.144 105.94 203.088 105.74 203.088 105.524ZM212.627 104.492H222.815V106.052H212.627V104.492ZM149.332 119.524C149.332 119.308 149.388 119.108 149.5 118.924C149.62 118.732 149.772 118.58 149.956 118.468C150.148 118.356 150.348 118.3 150.556 118.3C150.78 118.3 150.984 118.356 151.168 118.468C151.352 118.58 151.5 118.732 151.612 118.924C151.724 119.108 151.78 119.308 151.78 119.524C151.78 119.852 151.66 120.136 151.42 120.376C151.18 120.616 150.892 120.736 150.556 120.736C150.348 120.736 150.148 120.68 149.956 120.568C149.772 120.456 149.62 120.308 149.5 120.124C149.388 119.94 149.332 119.74 149.332 119.524ZM158.871 118.492H169.059V120.052H158.871V118.492ZM172.31 118.492H182.498V120.052H172.31V118.492ZM185.749 118.492H195.937V120.052H185.749V118.492ZM199.188 118.492H209.376V120.052H199.188V118.492ZM212.627 118.492H222.815V120.052H212.627V118.492ZM149.332 133.524C149.332 133.308 149.388 133.108 149.5 132.924C149.62 132.732 149.772 132.58 149.956 132.468C150.148 132.356 150.348 132.3 150.556 132.3C150.78 132.3 150.984 132.356 151.168 132.468C151.352 132.58 151.5 132.732 151.612 132.924C151.724 133.108 151.78 133.308 151.78 133.524C151.78 133.852 151.66 134.136 151.42 134.376C151.18 134.616 150.892 134.736 150.556 134.736C150.348 134.736 150.148 134.68 149.956 134.568C149.772 134.456 149.62 134.308 149.5 134.124C149.388 133.94 149.332 133.74 149.332 133.524ZM158.871 132.492H169.059V134.052H158.871V132.492ZM176.21 133.524C176.21 133.308 176.266 133.108 176.378 132.924C176.498 132.732 176.65 132.58 176.834 132.468C177.026 132.356 177.226 132.3 177.434 132.3C177.658 132.3 177.862 132.356 178.046 132.468C178.23 132.58 178.378 132.732 178.49 132.924C178.602 133.108 178.658 133.308 178.658 133.524C178.658 133.852 178.538 134.136 178.298 134.376C178.058 134.616 177.77 134.736 177.434 134.736C177.226 134.736 177.026 134.68 176.834 134.568C176.65 134.456 176.498 134.308 176.378 134.124C176.266 133.94 176.21 133.74 176.21 133.524ZM189.649 133.524C189.649 133.308 189.705 133.108 189.817 132.924C189.937 132.732 190.089 132.58 190.273 132.468C190.465 132.356 190.665 132.3 190.873 132.3C191.097 132.3 191.301 132.356 191.485 132.468C191.669 132.58 191.817 132.732 191.929 132.924C192.041 133.108 192.097 133.308 192.097 133.524C192.097 133.852 191.977 134.136 191.737 134.376C191.497 134.616 191.209 134.736 190.873 134.736C190.665 134.736 190.465 134.68 190.273 134.568C190.089 134.456 189.937 134.308 189.817 134.124C189.705 133.94 189.649 133.74 189.649 133.524ZM199.188 132.492H209.376V134.052H199.188V132.492ZM216.527 133.524C216.527 133.308 216.583 133.108 216.695 132.924C216.815 132.732 216.967 132.58 217.151 132.468C217.343 132.356 217.543 132.3 217.751 132.3C217.975 132.3 218.179 132.356 218.363 132.468C218.547 132.58 218.695 132.732 218.807 132.924C218.919 133.108 218.975 133.308 218.975 133.524C218.975 133.852 218.855 134.136 218.615 134.376C218.375 134.616 218.087 134.736 217.751 134.736C217.543 134.736 217.343 134.68 217.151 134.568C216.967 134.456 216.815 134.308 216.695 134.124C216.583 133.94 216.527 133.74 216.527 133.524ZM145.432 146.492H155.62V148.052H145.432V146.492ZM162.771 147.524C162.771 147.308 162.827 147.108 162.939 146.924C163.059 146.732 163.211 146.58 163.395 146.468C163.587 146.356 163.787 146.3 163.995 146.3C164.219 146.3 164.423 146.356 164.607 146.468C164.791 146.58 164.939 146.732 165.051 146.924C165.163 147.108 165.219 147.308 165.219 147.524C165.219 147.852 165.099 148.136 164.859 148.376C164.619 148.616 164.331 148.736 163.995 148.736C163.787 148.736 163.587 148.68 163.395 148.568C163.211 148.456 163.059 148.308 162.939 148.124C162.827 147.94 162.771 147.74 162.771 147.524ZM176.21 147.524C176.21 147.308 176.266 147.108 176.378 146.924C176.498 146.732 176.65 146.58 176.834 146.468C177.026 146.356 177.226 146.3 177.434 146.3C177.658 146.3 177.862 146.356 178.046 146.468C178.23 146.58 178.378 146.732 178.49 146.924C178.602 147.108 178.658 147.308 178.658 147.524C178.658 147.852 178.538 148.136 178.298 148.376C178.058 148.616 177.77 148.736 177.434 148.736C177.226 148.736 177.026 148.68 176.834 148.568C176.65 148.456 176.498 148.308 176.378 148.124C176.266 147.94 176.21 147.74 176.21 147.524ZM189.649 147.524C189.649 147.308 189.705 147.108 189.817 146.924C189.937 146.732 190.089 146.58 190.273 146.468C190.465 146.356 190.665 146.3 190.873 146.3C191.097 146.3 191.301 146.356 191.485 146.468C191.669 146.58 191.817 146.732 191.929 146.924C192.041 147.108 192.097 147.308 192.097 147.524C192.097 147.852 191.977 148.136 191.737 148.376C191.497 148.616 191.209 148.736 190.873 148.736C190.665 148.736 190.465 148.68 190.273 148.568C190.089 148.456 189.937 148.308 189.817 148.124C189.705 147.94 189.649 147.74 189.649 147.524ZM199.188 146.492H209.376V148.052H199.188V146.492ZM149.332 161.524C149.332 161.308 149.388 161.108 149.5 160.924C149.62 160.732 149.772 160.58 149.956 160.468C150.148 160.356 150.348 160.3 150.556 160.3C150.78 160.3 150.984 160.356 151.168 160.468C151.352 160.58 151.5 160.732 151.612 160.924C151.724 161.108 151.78 161.308 151.78 161.524C151.78 161.852 151.66 162.136 151.42 162.376C151.18 162.616 150.892 162.736 150.556 162.736C150.348 162.736 150.148 162.68 149.956 162.568C149.772 162.456 149.62 162.308 149.5 162.124C149.388 161.94 149.332 161.74 149.332 161.524ZM158.871 160.492H169.059V162.052H158.871V160.492ZM176.21 161.524C176.21 161.308 176.266 161.108 176.378 160.924C176.498 160.732 176.65 160.58 176.834 160.468C177.026 160.356 177.226 160.3 177.434 160.3C177.658 160.3 177.862 160.356 178.046 160.468C178.23 160.58 178.378 160.732 178.49 160.924C178.602 161.108 178.658 161.308 178.658 161.524C178.658 161.852 178.538 162.136 178.298 162.376C178.058 162.616 177.77 162.736 177.434 162.736C177.226 162.736 177.026 162.68 176.834 162.568C176.65 162.456 176.498 162.308 176.378 162.124C176.266 161.94 176.21 161.74 176.21 161.524ZM185.749 160.492H195.937V162.052H185.749V160.492ZM203.088 161.524C203.088 161.308 203.144 161.108 203.256 160.924C203.376 160.732 203.528 160.58 203.712 160.468C203.904 160.356 204.104 160.3 204.312 160.3C204.536 160.3 204.74 160.356 204.924 160.468C205.108 160.58 205.256 160.732 205.368 160.924C205.48 161.108 205.536 161.308 205.536 161.524C205.536 161.852 205.416 162.136 205.176 162.376C204.936 162.616 204.648 162.736 204.312 162.736C204.104 162.736 203.904 162.68 203.712 162.568C203.528 162.456 203.376 162.308 203.256 162.124C203.144 161.94 203.088 161.74 203.088 161.524ZM145.432 174.492H155.62V176.052H145.432V174.492ZM162.771 175.524C162.771 175.308 162.827 175.108 162.939 174.924C163.059 174.732 163.211 174.58 163.395 174.468C163.587 174.356 163.787 174.3 163.995 174.3C164.219 174.3 164.423 174.356 164.607 174.468C164.791 174.58 164.939 174.732 165.051 174.924C165.163 175.108 165.219 175.308 165.219 175.524C165.219 175.852 165.099 176.136 164.859 176.376C164.619 176.616 164.331 176.736 163.995 176.736C163.787 176.736 163.587 176.68 163.395 176.568C163.211 176.456 163.059 176.308 162.939 176.124C162.827 175.94 162.771 175.74 162.771 175.524ZM176.21 175.524C176.21 175.308 176.266 175.108 176.378 174.924C176.498 174.732 176.65 174.58 176.834 174.468C177.026 174.356 177.226 174.3 177.434 174.3C177.658 174.3 177.862 174.356 178.046 174.468C178.23 174.58 178.378 174.732 178.49 174.924C178.602 175.108 178.658 175.308 178.658 175.524C178.658 175.852 178.538 176.136 178.298 176.376C178.058 176.616 177.77 176.736 177.434 176.736C177.226 176.736 177.026 176.68 176.834 176.568C176.65 176.456 176.498 176.308 176.378 176.124C176.266 175.94 176.21 175.74 176.21 175.524ZM189.649 175.524C189.649 175.308 189.705 175.108 189.817 174.924C189.937 174.732 190.089 174.58 190.273 174.468C190.465 174.356 190.665 174.3 190.873 174.3C191.097 174.3 191.301 174.356 191.485 174.468C191.669 174.58 191.817 174.732 191.929 174.924C192.041 175.108 192.097 175.308 192.097 175.524C192.097 175.852 191.977 176.136 191.737 176.376C191.497 176.616 191.209 176.736 190.873 176.736C190.665 176.736 190.465 176.68 190.273 176.568C190.089 176.456 189.937 176.308 189.817 176.124C189.705 175.94 189.649 175.74 189.649 175.524ZM203.088 175.524C203.088 175.308 203.144 175.108 203.256 174.924C203.376 174.732 203.528 174.58 203.712 174.468C203.904 174.356 204.104 174.3 204.312 174.3C204.536 174.3 204.74 174.356 204.924 174.468C205.108 174.58 205.256 174.732 205.368 174.924C205.48 175.108 205.536 175.308 205.536 175.524C205.536 175.852 205.416 176.136 205.176 176.376C204.936 176.616 204.648 176.736 204.312 176.736C204.104 176.736 203.904 176.68 203.712 176.568C203.528 176.456 203.376 176.308 203.256 176.124C203.144 175.94 203.088 175.74 203.088 175.524ZM212.627 174.492H222.815V176.052H212.627V174.492ZM149.332 189.524C149.332 189.308 149.388 189.108 149.5 188.924C149.62 188.732 149.772 188.58 149.956 188.468C150.148 188.356 150.348 188.3 150.556 188.3C150.78 188.3 150.984 188.356 151.168 188.468C151.352 188.58 151.5 188.732 151.612 188.924C151.724 189.108 151.78 189.308 151.78 189.524C151.78 189.852 151.66 190.136 151.42 190.376C151.18 190.616 150.892 190.736 150.556 190.736C150.348 190.736 150.148 190.68 149.956 190.568C149.772 190.456 149.62 190.308 149.5 190.124C149.388 189.94 149.332 189.74 149.332 189.524ZM162.771 189.524C162.771 189.308 162.827 189.108 162.939 188.924C163.059 188.732 163.211 188.58 163.395 188.468C163.587 188.356 163.787 188.3 163.995 188.3C164.219 188.3 164.423 188.356 164.607 188.468C164.791 188.58 164.939 188.732 165.051 188.924C165.163 189.108 165.219 189.308 165.219 189.524C165.219 189.852 165.099 190.136 164.859 190.376C164.619 190.616 164.331 190.736 163.995 190.736C163.787 190.736 163.587 190.68 163.395 190.568C163.211 190.456 163.059 190.308 162.939 190.124C162.827 189.94 162.771 189.74 162.771 189.524ZM172.31 188.492H182.498V190.052H172.31V188.492ZM185.749 188.492H195.937V190.052H185.749V188.492ZM203.088 189.524C203.088 189.308 203.144 189.108 203.256 188.924C203.376 188.732 203.528 188.58 203.712 188.468C203.904 188.356 204.104 188.3 204.312 188.3C204.536 188.3 204.74 188.356 204.924 188.468C205.108 188.58 205.256 188.732 205.368 188.924C205.48 189.108 205.536 189.308 205.536 189.524C205.536 189.852 205.416 190.136 205.176 190.376C204.936 190.616 204.648 190.736 204.312 190.736C204.104 190.736 203.904 190.68 203.712 190.568C203.528 190.456 203.376 190.308 203.256 190.124C203.144 189.94 203.088 189.74 203.088 189.524ZM212.627 188.492H222.815V190.052H212.627V188.492Z" fill="white"/>
</svg>
