<svg width="186" height="210" viewBox="0 0 186 210" fill="none" xmlns="http://www.w3.org/2000/svg">
<path d="M1.60825 12L4.45225 3.108H6.55225L9.39625 12H7.52425L6.26425 7.368C6.12825 6.904 5.99625 6.424 5.86825 5.928C5.74825 5.424 5.62025 4.936 5.48425 4.464H5.43625C5.32425 4.944 5.20025 5.432 5.06425 5.928C4.93625 6.424 4.80825 6.904 4.68025 7.368L3.40825 12H1.60825ZM3.37225 9.72V8.34H7.59625V9.72H3.37225ZM2.50802 26V17.108H5.44802C6.05602 17.108 6.60002 17.176 7.08002 17.312C7.56802 17.448 7.95202 17.676 8.23202 17.996C8.52002 18.316 8.66402 18.752 8.66402 19.304C8.66402 19.576 8.61202 19.844 8.50802 20.108C8.41202 20.364 8.27602 20.592 8.10002 20.792C7.92402 20.992 7.70802 21.14 7.45202 21.236V21.284C7.93202 21.396 8.32802 21.628 8.64002 21.98C8.95202 22.324 9.10802 22.792 9.10802 23.384C9.10802 23.976 8.95602 24.468 8.65202 24.86C8.35602 25.244 7.94802 25.532 7.42802 25.724C6.91602 25.908 6.33202 26 5.67602 26H2.50802ZM4.28402 20.732H5.32802C5.88802 20.732 6.29602 20.628 6.55202 20.42C6.80802 20.204 6.93602 19.92 6.93602 19.568C6.93602 19.176 6.80402 18.896 6.54002 18.728C6.27602 18.56 5.87602 18.476 5.34002 18.476H4.28402V20.732ZM4.28402 24.632H5.52002C6.12802 24.632 6.58802 24.524 6.90002 24.308C7.22002 24.084 7.38002 23.74 7.38002 23.276C7.38002 22.844 7.22002 22.532 6.90002 22.34C6.58802 22.14 6.12802 22.04 5.52002 22.04H4.28402V24.632ZM6.2665 40.168C5.7065 40.168 5.1825 40.072 4.6945 39.88C4.2065 39.68 3.7745 39.384 3.3985 38.992C3.0305 38.6 2.7385 38.12 2.5225 37.552C2.3145 36.984 2.2105 36.332 2.2105 35.596C2.2105 34.86 2.3185 34.208 2.5345 33.64C2.7505 33.064 3.0465 32.576 3.4225 32.176C3.8065 31.776 4.2465 31.472 4.7425 31.264C5.2465 31.056 5.7785 30.952 6.3385 30.952C6.9065 30.952 7.4105 31.068 7.8505 31.3C8.2985 31.524 8.6625 31.788 8.9425 32.092L8.0185 33.22C7.7945 32.996 7.5465 32.816 7.2745 32.68C7.0105 32.544 6.7105 32.476 6.3745 32.476C5.9265 32.476 5.5225 32.6 5.1625 32.848C4.8105 33.088 4.5345 33.436 4.3345 33.892C4.1345 34.348 4.0345 34.896 4.0345 35.536C4.0345 36.184 4.1265 36.74 4.3105 37.204C4.5025 37.66 4.7705 38.012 5.1145 38.26C5.4665 38.508 5.8745 38.632 6.3385 38.632C6.7225 38.632 7.0625 38.552 7.3585 38.392C7.6625 38.224 7.9305 38.012 8.1625 37.756L9.1105 38.86C8.7425 39.292 8.3225 39.62 7.8505 39.844C7.3785 40.06 6.8505 40.168 6.2665 40.168ZM2.3088 54V45.108H4.7448C5.6568 45.108 6.4368 45.268 7.0848 45.588C7.7408 45.908 8.2448 46.392 8.5968 47.04C8.9568 47.688 9.1368 48.512 9.1368 49.512C9.1368 50.512 8.9608 51.344 8.6088 52.008C8.2568 52.672 7.7608 53.172 7.1208 53.508C6.4808 53.836 5.7208 54 4.8408 54H2.3088ZM4.0848 52.56H4.6248C5.1848 52.56 5.6648 52.46 6.0648 52.26C6.4728 52.052 6.7848 51.724 7.0008 51.276C7.2168 50.82 7.3248 50.232 7.3248 49.512C7.3248 48.792 7.2168 48.216 7.0008 47.784C6.7848 47.344 6.4728 47.028 6.0648 46.836C5.6648 46.636 5.1848 46.536 4.6248 46.536H4.0848V52.56ZM2.90059 68V59.108H8.34859V60.596H4.67659V62.648H7.78459V64.136H4.67659V66.512H8.48059V68H2.90059ZM3.08223 82V73.108H8.55423V74.596H4.85823V76.912H8.01423V78.4H4.85823V82H3.08223ZM6.10722 96.168C5.30722 96.168 4.58322 95.992 3.93522 95.64C3.29522 95.288 2.78722 94.772 2.41122 94.092C2.03522 93.412 1.84722 92.58 1.84722 91.596C1.84722 90.86 1.95522 90.208 2.17122 89.64C2.39522 89.064 2.70322 88.576 3.09522 88.176C3.48722 87.776 3.93922 87.472 4.45122 87.264C4.96322 87.056 5.51522 86.952 6.10722 86.952C6.74722 86.952 7.29122 87.072 7.73922 87.312C8.19522 87.544 8.56722 87.804 8.85522 88.092L7.90722 89.22C7.68322 89.012 7.43522 88.836 7.16322 88.692C6.89922 88.548 6.56722 88.476 6.16722 88.476C5.67122 88.476 5.23522 88.6 4.85922 88.848C4.48322 89.088 4.19122 89.436 3.98322 89.892C3.77522 90.348 3.67122 90.896 3.67122 91.536C3.67122 92.184 3.76722 92.74 3.95922 93.204C4.15922 93.66 4.45522 94.012 4.84722 94.26C5.23922 94.508 5.72322 94.632 6.29922 94.632C6.51522 94.632 6.72322 94.604 6.92322 94.548C7.12322 94.484 7.28322 94.4 7.40322 94.296V92.544H5.83122V91.092H8.99922V95.1C8.69522 95.396 8.29122 95.648 7.78722 95.856C7.28322 96.064 6.72322 96.168 6.10722 96.168ZM2.05098 110V101.108H3.82698V104.624H7.18699V101.108H8.95098V110H7.18699V106.16H3.82698V110H2.05098ZM4.61153 124V115.108H6.38753V124H4.61153ZM5.11384 138.168C4.47384 138.168 3.92984 138.04 3.48184 137.784C3.03384 137.52 2.66184 137.128 2.36584 136.608L3.57784 135.708C3.75384 136.028 3.95384 136.264 4.17784 136.416C4.40184 136.56 4.64184 136.632 4.89784 136.632C5.28984 136.632 5.58584 136.512 5.78584 136.272C5.98584 136.032 6.08584 135.604 6.08584 134.988V129.108H7.86184V135.132C7.86184 135.692 7.76584 136.204 7.57384 136.668C7.38184 137.124 7.08184 137.488 6.67384 137.76C6.27384 138.032 5.75384 138.168 5.11384 138.168ZM2.47872 152V143.108H4.25472V146.972H4.29072L7.23072 143.108H9.18672L6.47472 146.612L9.66672 152H7.72272L5.41872 148.004L4.25472 149.504V152H2.47872ZM3.12325 166V157.108H4.89925V164.512H8.51125V166H3.12325ZM1.47677 180V171.108H3.44477L4.95677 175.284C5.05277 175.548 5.14477 175.828 5.23277 176.124C5.32077 176.412 5.40877 176.696 5.49677 176.976H5.55677C5.65277 176.696 5.74477 176.412 5.83277 176.124C5.92077 175.828 6.00477 175.548 6.08477 175.284L7.57277 171.108H9.54077V180H7.92077V176.292C7.92077 176.004 7.93277 175.688 7.95677 175.344C7.98077 175 8.00877 174.656 8.04077 174.312C8.08077 173.96 8.11677 173.648 8.14877 173.376H8.10077L7.36877 175.464L6.00077 179.196H4.98077L3.60077 175.464L2.89277 173.376H2.84477C2.87677 173.648 2.90877 173.96 2.94077 174.312C2.97277 174.656 3.00077 175 3.02477 175.344C3.05677 175.688 3.07277 176.004 3.07277 176.292V180H1.47677ZM2.09786 194V185.108H3.90986L6.48986 189.848L7.38986 191.768H7.44986C7.40186 191.304 7.34986 190.796 7.29386 190.244C7.23786 189.692 7.20986 189.164 7.20986 188.66V185.108H8.88986V194H7.07786L4.52186 189.248L3.62186 187.34H3.56186C3.60186 187.82 3.64986 188.328 3.70586 188.864C3.76186 189.4 3.78986 189.924 3.78986 190.436V194H2.09786ZM5.50281 208.168C4.71881 208.168 4.02681 207.984 3.42681 207.616C2.83481 207.24 2.37081 206.704 2.03481 206.008C1.69881 205.312 1.53081 204.48 1.53081 203.512C1.53081 202.552 1.69881 201.732 2.03481 201.052C2.37081 200.372 2.83481 199.852 3.42681 199.492C4.02681 199.132 4.71881 198.952 5.50281 198.952C6.29481 198.952 6.98681 199.136 7.57881 199.504C8.17081 199.864 8.63481 200.384 8.97081 201.064C9.30681 201.736 9.47481 202.552 9.47481 203.512C9.47481 204.48 9.30681 205.312 8.97081 206.008C8.63481 206.704 8.17081 207.24 7.57881 207.616C6.98681 207.984 6.29481 208.168 5.50281 208.168ZM5.50281 206.632C5.94281 206.632 6.32281 206.504 6.64281 206.248C6.97081 205.992 7.22281 205.632 7.39881 205.168C7.57481 204.696 7.66281 204.144 7.66281 203.512C7.66281 202.88 7.57481 202.34 7.39881 201.892C7.22281 201.436 6.97081 201.088 6.64281 200.848C6.32281 200.6 5.94281 200.476 5.50281 200.476C5.06281 200.476 4.67881 200.6 4.35081 200.848C4.03081 201.088 3.78281 201.436 3.60681 201.892C3.43881 202.34 3.35481 202.88 3.35481 203.512C3.35481 204.144 3.43881 204.696 3.60681 205.168C3.78281 205.632 4.03081 205.992 4.35081 206.248C4.67881 206.504 5.06281 206.632 5.50281 206.632Z" fill="black"/>
<path d="M120.59 12V3.108H123.506C124.162 3.108 124.75 3.196 125.27 3.372C125.798 3.548 126.214 3.84 126.518 4.248C126.83 4.648 126.986 5.2 126.986 5.904C126.986 6.576 126.83 7.132 126.518 7.572C126.214 8.004 125.802 8.324 125.282 8.532C124.77 8.74 124.194 8.844 123.554 8.844H122.366V12H120.59ZM122.366 7.44H123.434C124.042 7.44 124.494 7.312 124.79 7.056C125.094 6.8 125.246 6.416 125.246 5.904C125.246 5.392 125.086 5.036 124.766 4.836C124.454 4.628 123.99 4.524 123.374 4.524H122.366V7.44ZM123.503 26.168C122.719 26.168 122.027 25.984 121.427 25.616C120.835 25.24 120.371 24.704 120.035 24.008C119.699 23.312 119.531 22.48 119.531 21.512C119.531 20.552 119.699 19.732 120.035 19.052C120.371 18.372 120.835 17.852 121.427 17.492C122.027 17.132 122.719 16.952 123.503 16.952C124.295 16.952 124.987 17.136 125.579 17.504C126.171 17.864 126.635 18.384 126.971 19.064C127.307 19.736 127.475 20.552 127.475 21.512C127.475 22.48 127.307 23.312 126.971 24.008C126.635 24.704 126.171 25.24 125.579 25.616C124.987 25.984 124.295 26.168 123.503 26.168ZM123.503 24.716C123.943 24.716 124.323 24.588 124.643 24.332C124.971 24.076 125.223 23.708 125.399 23.228C125.575 22.748 125.663 22.176 125.663 21.512C125.663 20.88 125.575 20.34 125.399 19.892C125.223 19.436 124.971 19.088 124.643 18.848C124.323 18.6 123.943 18.476 123.503 18.476C123.063 18.476 122.679 18.6 122.351 18.848C122.031 19.088 121.783 19.436 121.607 19.892C121.439 20.34 121.355 20.88 121.355 21.512C121.355 22.176 121.439 22.748 121.607 23.228C121.783 23.708 122.031 24.076 122.351 24.332C122.679 24.588 123.063 24.716 123.503 24.716ZM126.383 28.412C125.751 28.412 125.187 28.304 124.691 28.088C124.195 27.872 123.775 27.576 123.431 27.2C123.087 26.832 122.819 26.412 122.627 25.94L124.427 25.76C124.547 26.048 124.715 26.284 124.931 26.468C125.155 26.652 125.411 26.784 125.699 26.864C125.987 26.952 126.279 26.996 126.575 26.996C126.767 26.996 126.943 26.98 127.103 26.948C127.271 26.916 127.419 26.88 127.547 26.84L127.871 28.148C127.711 28.22 127.503 28.28 127.247 28.328C126.991 28.384 126.703 28.412 126.383 28.412ZM120.502 40V31.108H123.586C124.218 31.108 124.786 31.192 125.29 31.36C125.794 31.52 126.194 31.8 126.49 32.2C126.786 32.592 126.934 33.128 126.934 33.808C126.934 34.464 126.786 35.004 126.49 35.428C126.194 35.844 125.794 36.152 125.29 36.352C124.786 36.544 124.218 36.64 123.586 36.64H122.278V40H120.502ZM122.278 35.236H123.43C124.006 35.236 124.442 35.116 124.738 34.876C125.042 34.636 125.194 34.28 125.194 33.808C125.194 33.328 125.042 32.996 124.738 32.812C124.442 32.62 124.006 32.524 123.43 32.524H122.278V35.236ZM125.326 40L123.262 36.184L124.51 35.08L127.318 40H125.326ZM123.5 54.168C122.908 54.168 122.328 54.056 121.76 53.832C121.192 53.608 120.692 53.288 120.26 52.872L121.28 51.648C121.592 51.944 121.948 52.184 122.348 52.368C122.756 52.544 123.152 52.632 123.536 52.632C124 52.632 124.352 52.54 124.592 52.356C124.832 52.172 124.952 51.924 124.952 51.612C124.952 51.388 124.892 51.212 124.772 51.084C124.66 50.948 124.504 50.828 124.304 50.724C124.104 50.62 123.872 50.516 123.608 50.412L122.432 49.896C122.136 49.776 121.848 49.616 121.568 49.416C121.296 49.208 121.068 48.948 120.884 48.636C120.708 48.324 120.62 47.952 120.62 47.52C120.62 47.032 120.752 46.596 121.016 46.212C121.28 45.828 121.644 45.524 122.108 45.3C122.572 45.068 123.1 44.952 123.692 44.952C124.22 44.952 124.728 45.052 125.216 45.252C125.704 45.452 126.128 45.736 126.488 46.104L125.588 47.208C125.308 46.976 125.016 46.796 124.712 46.668C124.408 46.54 124.068 46.476 123.692 46.476C123.308 46.476 123 46.56 122.768 46.728C122.544 46.888 122.432 47.116 122.432 47.412C122.432 47.62 122.496 47.792 122.624 47.928C122.752 48.064 122.92 48.184 123.128 48.288C123.336 48.384 123.564 48.484 123.812 48.588L124.976 49.056C125.336 49.2 125.648 49.38 125.912 49.596C126.184 49.812 126.392 50.072 126.536 50.376C126.688 50.68 126.764 51.048 126.764 51.48C126.764 51.96 126.632 52.404 126.368 52.812C126.112 53.22 125.74 53.548 125.252 53.796C124.772 54.044 124.188 54.168 123.5 54.168ZM122.606 68V60.596H120.11V59.108H126.89V60.596H124.382V68H122.606ZM123.524 82.168C122.972 82.168 122.484 82.092 122.06 81.94C121.636 81.78 121.272 81.532 120.968 81.196C120.672 80.86 120.448 80.428 120.296 79.9C120.144 79.372 120.068 78.74 120.068 78.004V73.108H121.832V78.16C121.832 78.776 121.9 79.264 122.036 79.624C122.172 79.984 122.364 80.244 122.612 80.404C122.868 80.556 123.172 80.632 123.524 80.632C123.876 80.632 124.18 80.556 124.436 80.404C124.692 80.244 124.888 79.984 125.024 79.624C125.168 79.264 125.24 78.776 125.24 78.16V73.108H126.944V78.004C126.944 78.74 126.868 79.372 126.716 79.9C126.564 80.428 126.34 80.86 126.044 81.196C125.748 81.532 125.388 81.78 124.964 81.94C124.54 82.092 124.06 82.168 123.524 82.168ZM122.437 96L119.725 87.108H121.597L122.761 91.44C122.905 91.928 123.029 92.404 123.133 92.868C123.245 93.324 123.369 93.804 123.505 94.308H123.565C123.709 93.804 123.837 93.324 123.949 92.868C124.061 92.404 124.185 91.928 124.321 91.44L125.473 87.108H127.273L124.561 96H122.437ZM119.942 110L118.238 101.108H120.05L120.734 105.452C120.814 105.916 120.886 106.384 120.95 106.856C121.022 107.328 121.09 107.804 121.154 108.284H121.202C121.298 107.804 121.394 107.328 121.49 106.856C121.586 106.384 121.678 105.916 121.766 105.452L122.786 101.108H124.31L125.342 105.452C125.438 105.908 125.53 106.376 125.618 106.856C125.714 107.328 125.81 107.804 125.906 108.284H125.966C126.03 107.804 126.094 107.328 126.158 106.856C126.23 106.384 126.298 105.916 126.362 105.452L127.07 101.108H128.75L127.106 110H124.898L123.902 105.596C123.83 105.252 123.762 104.912 123.698 104.576C123.634 104.232 123.578 103.892 123.53 103.556H123.482C123.418 103.892 123.35 104.232 123.278 104.576C123.214 104.912 123.15 105.252 123.086 105.596L122.114 110H119.942ZM119.918 124L122.402 119.428L120.05 115.108H122.03L122.918 116.956C123.022 117.156 123.126 117.372 123.23 117.604C123.334 117.828 123.45 118.076 123.578 118.348H123.626C123.738 118.076 123.842 117.828 123.938 117.604C124.034 117.372 124.13 117.156 124.226 116.956L125.066 115.108H126.938L124.598 119.5L127.094 124H125.126L124.13 122.032C124.026 121.808 123.914 121.576 123.794 121.336C123.682 121.096 123.562 120.84 123.434 120.568H123.386C123.274 120.84 123.166 121.096 123.062 121.336C122.958 121.576 122.85 121.808 122.738 122.032L121.79 124H119.918ZM122.624 138V134.748L119.948 129.108H121.832L122.72 131.28C122.848 131.616 122.972 131.944 123.092 132.264C123.22 132.576 123.352 132.904 123.488 133.248H123.536C123.672 132.904 123.804 132.576 123.932 132.264C124.068 131.944 124.2 131.616 124.328 131.28L125.216 129.108H127.064L124.388 134.748V138H122.624ZM120.336 152V150.932L124.476 144.596H120.72V143.108H126.66V144.176L122.52 150.512H126.696V152H120.336Z" fill="black"/>
<path d="M20.332 7.524C20.332 7.308 20.388 7.108 20.5 6.924C20.62 6.732 20.772 6.58 20.956 6.468C21.148 6.356 21.348 6.3 21.556 6.3C21.78 6.3 21.984 6.356 22.168 6.468C22.352 6.58 22.5 6.732 22.612 6.924C22.724 7.108 22.78 7.308 22.78 7.524C22.78 7.852 22.66 8.136 22.42 8.376C22.18 8.616 21.892 8.736 21.556 8.736C21.348 8.736 21.148 8.68 20.956 8.568C20.772 8.456 20.62 8.308 20.5 8.124C20.388 7.94 20.332 7.74 20.332 7.524ZM29.8711 6.492H40.0591V8.052H29.8711V6.492ZM16.432 20.492H26.62V22.052H16.432V20.492ZM33.7711 21.524C33.7711 21.308 33.8271 21.108 33.9391 20.924C34.0591 20.732 34.2111 20.58 34.3951 20.468C34.5871 20.356 34.7871 20.3 34.9951 20.3C35.2191 20.3 35.4231 20.356 35.6071 20.468C35.7911 20.58 35.9391 20.732 36.0511 20.924C36.1631 21.108 36.2191 21.308 36.2191 21.524C36.2191 21.852 36.0991 22.136 35.8591 22.376C35.6191 22.616 35.3311 22.736 34.9951 22.736C34.7871 22.736 34.5871 22.68 34.3951 22.568C34.2111 22.456 34.0591 22.308 33.9391 22.124C33.8271 21.94 33.7711 21.74 33.7711 21.524ZM47.2101 21.524C47.2101 21.308 47.2661 21.108 47.3781 20.924C47.4981 20.732 47.6501 20.58 47.8341 20.468C48.0261 20.356 48.2261 20.3 48.4341 20.3C48.6581 20.3 48.8621 20.356 49.0461 20.468C49.2301 20.58 49.3781 20.732 49.4901 20.924C49.6021 21.108 49.6581 21.308 49.6581 21.524C49.6581 21.852 49.5381 22.136 49.2981 22.376C49.0581 22.616 48.7701 22.736 48.4341 22.736C48.2261 22.736 48.0261 22.68 47.8341 22.568C47.6501 22.456 47.4981 22.308 47.3781 22.124C47.2661 21.94 47.2101 21.74 47.2101 21.524ZM60.6492 21.524C60.6492 21.308 60.7052 21.108 60.8172 20.924C60.9372 20.732 61.0892 20.58 61.2732 20.468C61.4652 20.356 61.6652 20.3 61.8732 20.3C62.0972 20.3 62.3012 20.356 62.4852 20.468C62.6692 20.58 62.8172 20.732 62.9292 20.924C63.0412 21.108 63.0972 21.308 63.0972 21.524C63.0972 21.852 62.9772 22.136 62.7372 22.376C62.4972 22.616 62.2092 22.736 61.8732 22.736C61.6652 22.736 61.4652 22.68 61.2732 22.568C61.0892 22.456 60.9372 22.308 60.8172 22.124C60.7052 21.94 60.6492 21.74 60.6492 21.524ZM16.432 34.492H26.62V36.052H16.432V34.492ZM33.7711 35.524C33.7711 35.308 33.8271 35.108 33.9391 34.924C34.0591 34.732 34.2111 34.58 34.3951 34.468C34.5871 34.356 34.7871 34.3 34.9951 34.3C35.2191 34.3 35.4231 34.356 35.6071 34.468C35.7911 34.58 35.9391 34.732 36.0511 34.924C36.1631 35.108 36.2191 35.308 36.2191 35.524C36.2191 35.852 36.0991 36.136 35.8591 36.376C35.6191 36.616 35.3311 36.736 34.9951 36.736C34.7871 36.736 34.5871 36.68 34.3951 36.568C34.2111 36.456 34.0591 36.308 33.9391 36.124C33.8271 35.94 33.7711 35.74 33.7711 35.524ZM43.3101 34.492H53.4981V36.052H43.3101V34.492ZM60.6492 35.524C60.6492 35.308 60.7052 35.108 60.8172 34.924C60.9372 34.732 61.0892 34.58 61.2732 34.468C61.4652 34.356 61.6652 34.3 61.8732 34.3C62.0972 34.3 62.3012 34.356 62.4852 34.468C62.6692 34.58 62.8172 34.732 62.9292 34.924C63.0412 35.108 63.0972 35.308 63.0972 35.524C63.0972 35.852 62.9772 36.136 62.7372 36.376C62.4972 36.616 62.2092 36.736 61.8732 36.736C61.6652 36.736 61.4652 36.68 61.2732 36.568C61.0892 36.456 60.9372 36.308 60.8172 36.124C60.7052 35.94 60.6492 35.74 60.6492 35.524ZM16.432 48.492H26.62V50.052H16.432V48.492ZM33.7711 49.524C33.7711 49.308 33.8271 49.108 33.9391 48.924C34.0591 48.732 34.2111 48.58 34.3951 48.468C34.5871 48.356 34.7871 48.3 34.9951 48.3C35.2191 48.3 35.4231 48.356 35.6071 48.468C35.7911 48.58 35.9391 48.732 36.0511 48.924C36.1631 49.108 36.2191 49.308 36.2191 49.524C36.2191 49.852 36.0991 50.136 35.8591 50.376C35.6191 50.616 35.3311 50.736 34.9951 50.736C34.7871 50.736 34.5871 50.68 34.3951 50.568C34.2111 50.456 34.0591 50.308 33.9391 50.124C33.8271 49.94 33.7711 49.74 33.7711 49.524ZM47.2101 49.524C47.2101 49.308 47.2661 49.108 47.3781 48.924C47.4981 48.732 47.6501 48.58 47.8341 48.468C48.0261 48.356 48.2261 48.3 48.4341 48.3C48.6581 48.3 48.8621 48.356 49.0461 48.468C49.2301 48.58 49.3781 48.732 49.4901 48.924C49.6021 49.108 49.6581 49.308 49.6581 49.524C49.6581 49.852 49.5381 50.136 49.2981 50.376C49.0581 50.616 48.7701 50.736 48.4341 50.736C48.2261 50.736 48.0261 50.68 47.8341 50.568C47.6501 50.456 47.4981 50.308 47.3781 50.124C47.2661 49.94 47.2101 49.74 47.2101 49.524ZM20.332 63.524C20.332 63.308 20.388 63.108 20.5 62.924C20.62 62.732 20.772 62.58 20.956 62.468C21.148 62.356 21.348 62.3 21.556 62.3C21.78 62.3 21.984 62.356 22.168 62.468C22.352 62.58 22.5 62.732 22.612 62.924C22.724 63.108 22.78 63.308 22.78 63.524C22.78 63.852 22.66 64.136 22.42 64.376C22.18 64.616 21.892 64.736 21.556 64.736C21.348 64.736 21.148 64.68 20.956 64.568C20.772 64.456 20.62 64.308 20.5 64.124C20.388 63.94 20.332 63.74 20.332 63.524ZM20.332 77.524C20.332 77.308 20.388 77.108 20.5 76.924C20.62 76.732 20.772 76.58 20.956 76.468C21.148 76.356 21.348 76.3 21.556 76.3C21.78 76.3 21.984 76.356 22.168 76.468C22.352 76.58 22.5 76.732 22.612 76.924C22.724 77.108 22.78 77.308 22.78 77.524C22.78 77.852 22.66 78.136 22.42 78.376C22.18 78.616 21.892 78.736 21.556 78.736C21.348 78.736 21.148 78.68 20.956 78.568C20.772 78.456 20.62 78.308 20.5 78.124C20.388 77.94 20.332 77.74 20.332 77.524ZM33.7711 77.524C33.7711 77.308 33.8271 77.108 33.9391 76.924C34.0591 76.732 34.2111 76.58 34.3951 76.468C34.5871 76.356 34.7871 76.3 34.9951 76.3C35.2191 76.3 35.4231 76.356 35.6071 76.468C35.7911 76.58 35.9391 76.732 36.0511 76.924C36.1631 77.108 36.2191 77.308 36.2191 77.524C36.2191 77.852 36.0991 78.136 35.8591 78.376C35.6191 78.616 35.3311 78.736 34.9951 78.736C34.7871 78.736 34.5871 78.68 34.3951 78.568C34.2111 78.456 34.0591 78.308 33.9391 78.124C33.8271 77.94 33.7711 77.74 33.7711 77.524ZM43.3101 76.492H53.4981V78.052H43.3101V76.492ZM60.6492 77.524C60.6492 77.308 60.7052 77.108 60.8172 76.924C60.9372 76.732 61.0892 76.58 61.2732 76.468C61.4652 76.356 61.6652 76.3 61.8732 76.3C62.0972 76.3 62.3012 76.356 62.4852 76.468C62.6692 76.58 62.8172 76.732 62.9292 76.924C63.0412 77.108 63.0972 77.308 63.0972 77.524C63.0972 77.852 62.9772 78.136 62.7372 78.376C62.4972 78.616 62.2092 78.736 61.8732 78.736C61.6652 78.736 61.4652 78.68 61.2732 78.568C61.0892 78.456 60.9372 78.308 60.8172 78.124C60.7052 77.94 60.6492 77.74 60.6492 77.524ZM16.432 90.492H26.62V92.052H16.432V90.492ZM29.8711 90.492H40.0591V92.052H29.8711V90.492ZM47.2101 91.524C47.2101 91.308 47.2661 91.108 47.3781 90.924C47.4981 90.732 47.6501 90.58 47.8341 90.468C48.0261 90.356 48.2261 90.3 48.4341 90.3C48.6581 90.3 48.8621 90.356 49.0461 90.468C49.2301 90.58 49.3781 90.732 49.4901 90.924C49.6021 91.108 49.6581 91.308 49.6581 91.524C49.6581 91.852 49.5381 92.136 49.2981 92.376C49.0581 92.616 48.7701 92.736 48.4341 92.736C48.2261 92.736 48.0261 92.68 47.8341 92.568C47.6501 92.456 47.4981 92.308 47.3781 92.124C47.2661 91.94 47.2101 91.74 47.2101 91.524ZM20.332 105.524C20.332 105.308 20.388 105.108 20.5 104.924C20.62 104.732 20.772 104.58 20.956 104.468C21.148 104.356 21.348 104.3 21.556 104.3C21.78 104.3 21.984 104.356 22.168 104.468C22.352 104.58 22.5 104.732 22.612 104.924C22.724 105.108 22.78 105.308 22.78 105.524C22.78 105.852 22.66 106.136 22.42 106.376C22.18 106.616 21.892 106.736 21.556 106.736C21.348 106.736 21.148 106.68 20.956 106.568C20.772 106.456 20.62 106.308 20.5 106.124C20.388 105.94 20.332 105.74 20.332 105.524ZM33.7711 105.524C33.7711 105.308 33.8271 105.108 33.9391 104.924C34.0591 104.732 34.2111 104.58 34.3951 104.468C34.5871 104.356 34.7871 104.3 34.9951 104.3C35.2191 104.3 35.4231 104.356 35.6071 104.468C35.7911 104.58 35.9391 104.732 36.0511 104.924C36.1631 105.108 36.2191 105.308 36.2191 105.524C36.2191 105.852 36.0991 106.136 35.8591 106.376C35.6191 106.616 35.3311 106.736 34.9951 106.736C34.7871 106.736 34.5871 106.68 34.3951 106.568C34.2111 106.456 34.0591 106.308 33.9391 106.124C33.8271 105.94 33.7711 105.74 33.7711 105.524ZM47.2101 105.524C47.2101 105.308 47.2661 105.108 47.3781 104.924C47.4981 104.732 47.6501 104.58 47.8341 104.468C48.0261 104.356 48.2261 104.3 48.4341 104.3C48.6581 104.3 48.8621 104.356 49.0461 104.468C49.2301 104.58 49.3781 104.732 49.4901 104.924C49.6021 105.108 49.6581 105.308 49.6581 105.524C49.6581 105.852 49.5381 106.136 49.2981 106.376C49.0581 106.616 48.7701 106.736 48.4341 106.736C48.2261 106.736 48.0261 106.68 47.8341 106.568C47.6501 106.456 47.4981 106.308 47.3781 106.124C47.2661 105.94 47.2101 105.74 47.2101 105.524ZM60.6492 105.524C60.6492 105.308 60.7052 105.108 60.8172 104.924C60.9372 104.732 61.0892 104.58 61.2732 104.468C61.4652 104.356 61.6652 104.3 61.8732 104.3C62.0972 104.3 62.3012 104.356 62.4852 104.468C62.6692 104.58 62.8172 104.732 62.9292 104.924C63.0412 105.108 63.0972 105.308 63.0972 105.524C63.0972 105.852 62.9772 106.136 62.7372 106.376C62.4972 106.616 62.2092 106.736 61.8732 106.736C61.6652 106.736 61.4652 106.68 61.2732 106.568C61.0892 106.456 60.9372 106.308 60.8172 106.124C60.7052 105.94 60.6492 105.74 60.6492 105.524ZM20.332 119.524C20.332 119.308 20.388 119.108 20.5 118.924C20.62 118.732 20.772 118.58 20.956 118.468C21.148 118.356 21.348 118.3 21.556 118.3C21.78 118.3 21.984 118.356 22.168 118.468C22.352 118.58 22.5 118.732 22.612 118.924C22.724 119.108 22.78 119.308 22.78 119.524C22.78 119.852 22.66 120.136 22.42 120.376C22.18 120.616 21.892 120.736 21.556 120.736C21.348 120.736 21.148 120.68 20.956 120.568C20.772 120.456 20.62 120.308 20.5 120.124C20.388 119.94 20.332 119.74 20.332 119.524ZM33.7711 119.524C33.7711 119.308 33.8271 119.108 33.9391 118.924C34.0591 118.732 34.2111 118.58 34.3951 118.468C34.5871 118.356 34.7871 118.3 34.9951 118.3C35.2191 118.3 35.4231 118.356 35.6071 118.468C35.7911 118.58 35.9391 118.732 36.0511 118.924C36.1631 119.108 36.2191 119.308 36.2191 119.524C36.2191 119.852 36.0991 120.136 35.8591 120.376C35.6191 120.616 35.3311 120.736 34.9951 120.736C34.7871 120.736 34.5871 120.68 34.3951 120.568C34.2111 120.456 34.0591 120.308 33.9391 120.124C33.8271 119.94 33.7711 119.74 33.7711 119.524ZM20.332 133.524C20.332 133.308 20.388 133.108 20.5 132.924C20.62 132.732 20.772 132.58 20.956 132.468C21.148 132.356 21.348 132.3 21.556 132.3C21.78 132.3 21.984 132.356 22.168 132.468C22.352 132.58 22.5 132.732 22.612 132.924C22.724 133.108 22.78 133.308 22.78 133.524C22.78 133.852 22.66 134.136 22.42 134.376C22.18 134.616 21.892 134.736 21.556 134.736C21.348 134.736 21.148 134.68 20.956 134.568C20.772 134.456 20.62 134.308 20.5 134.124C20.388 133.94 20.332 133.74 20.332 133.524ZM29.8711 132.492H40.0591V134.052H29.8711V132.492ZM43.3101 132.492H53.4981V134.052H43.3101V132.492ZM56.7492 132.492H66.9372V134.052H56.7492V132.492ZM16.432 146.492H26.62V148.052H16.432V146.492ZM33.7711 147.524C33.7711 147.308 33.8271 147.108 33.9391 146.924C34.0591 146.732 34.2111 146.58 34.3951 146.468C34.5871 146.356 34.7871 146.3 34.9951 146.3C35.2191 146.3 35.4231 146.356 35.6071 146.468C35.7911 146.58 35.9391 146.732 36.0511 146.924C36.1631 147.108 36.2191 147.308 36.2191 147.524C36.2191 147.852 36.0991 148.136 35.8591 148.376C35.6191 148.616 35.3311 148.736 34.9951 148.736C34.7871 148.736 34.5871 148.68 34.3951 148.568C34.2111 148.456 34.0591 148.308 33.9391 148.124C33.8271 147.94 33.7711 147.74 33.7711 147.524ZM43.3101 146.492H53.4981V148.052H43.3101V146.492ZM20.332 161.524C20.332 161.308 20.388 161.108 20.5 160.924C20.62 160.732 20.772 160.58 20.956 160.468C21.148 160.356 21.348 160.3 21.556 160.3C21.78 160.3 21.984 160.356 22.168 160.468C22.352 160.58 22.5 160.732 22.612 160.924C22.724 161.108 22.78 161.308 22.78 161.524C22.78 161.852 22.66 162.136 22.42 162.376C22.18 162.616 21.892 162.736 21.556 162.736C21.348 162.736 21.148 162.68 20.956 162.568C20.772 162.456 20.62 162.308 20.5 162.124C20.388 161.94 20.332 161.74 20.332 161.524ZM29.8711 160.492H40.0591V162.052H29.8711V160.492ZM47.2101 161.524C47.2101 161.308 47.2661 161.108 47.3781 160.924C47.4981 160.732 47.6501 160.58 47.8341 160.468C48.0261 160.356 48.2261 160.3 48.4341 160.3C48.6581 160.3 48.8621 160.356 49.0461 160.468C49.2301 160.58 49.3781 160.732 49.4901 160.924C49.6021 161.108 49.6581 161.308 49.6581 161.524C49.6581 161.852 49.5381 162.136 49.2981 162.376C49.0581 162.616 48.7701 162.736 48.4341 162.736C48.2261 162.736 48.0261 162.68 47.8341 162.568C47.6501 162.456 47.4981 162.308 47.3781 162.124C47.2661 161.94 47.2101 161.74 47.2101 161.524ZM60.6492 161.524C60.6492 161.308 60.7052 161.108 60.8172 160.924C60.9372 160.732 61.0892 160.58 61.2732 160.468C61.4652 160.356 61.6652 160.3 61.8732 160.3C62.0972 160.3 62.3012 160.356 62.4852 160.468C62.6692 160.58 62.8172 160.732 62.9292 160.924C63.0412 161.108 63.0972 161.308 63.0972 161.524C63.0972 161.852 62.9772 162.136 62.7372 162.376C62.4972 162.616 62.2092 162.736 61.8732 162.736C61.6652 162.736 61.4652 162.68 61.2732 162.568C61.0892 162.456 60.9372 162.308 60.8172 162.124C60.7052 161.94 60.6492 161.74 60.6492 161.524ZM16.432 174.492H26.62V176.052H16.432V174.492ZM29.8711 174.492H40.0591V176.052H29.8711V174.492ZM16.432 188.492H26.62V190.052H16.432V188.492ZM33.7711 189.524C33.7711 189.308 33.8271 189.108 33.9391 188.924C34.0591 188.732 34.2111 188.58 34.3951 188.468C34.5871 188.356 34.7871 188.3 34.9951 188.3C35.2191 188.3 35.4231 188.356 35.6071 188.468C35.7911 188.58 35.9391 188.732 36.0511 188.924C36.1631 189.108 36.2191 189.308 36.2191 189.524C36.2191 189.852 36.0991 190.136 35.8591 190.376C35.6191 190.616 35.3311 190.736 34.9951 190.736C34.7871 190.736 34.5871 190.68 34.3951 190.568C34.2111 190.456 34.0591 190.308 33.9391 190.124C33.8271 189.94 33.7711 189.74 33.7711 189.524ZM16.432 202.492H26.62V204.052H16.432V202.492ZM29.8711 202.492H40.0591V204.052H29.8711V202.492ZM43.3101 202.492H53.4981V204.052H43.3101V202.492Z" fill="black"/>
<path d="M138.332 7.524C138.332 7.308 138.388 7.108 138.5 6.924C138.62 6.732 138.772 6.58 138.956 6.468C139.148 6.356 139.348 6.3 139.556 6.3C139.78 6.3 139.984 6.356 140.168 6.468C140.352 6.58 140.5 6.732 140.612 6.924C140.724 7.108 140.78 7.308 140.78 7.524C140.78 7.852 140.66 8.136 140.42 8.376C140.18 8.616 139.892 8.736 139.556 8.736C139.348 8.736 139.148 8.68 138.956 8.568C138.772 8.456 138.62 8.308 138.5 8.124C138.388 7.94 138.332 7.74 138.332 7.524ZM147.871 6.492H158.059V8.052H147.871V6.492ZM161.31 6.492H171.498V8.052H161.31V6.492ZM178.649 7.524C178.649 7.308 178.705 7.108 178.817 6.924C178.937 6.732 179.089 6.58 179.273 6.468C179.465 6.356 179.665 6.3 179.873 6.3C180.097 6.3 180.301 6.356 180.485 6.468C180.669 6.58 180.817 6.732 180.929 6.924C181.041 7.108 181.097 7.308 181.097 7.524C181.097 7.852 180.977 8.136 180.737 8.376C180.497 8.616 180.209 8.736 179.873 8.736C179.665 8.736 179.465 8.68 179.273 8.568C179.089 8.456 178.937 8.308 178.817 8.124C178.705 7.94 178.649 7.74 178.649 7.524ZM134.432 20.492H144.62V22.052H134.432V20.492ZM147.871 20.492H158.059V22.052H147.871V20.492ZM165.21 21.524C165.21 21.308 165.266 21.108 165.378 20.924C165.498 20.732 165.65 20.58 165.834 20.468C166.026 20.356 166.226 20.3 166.434 20.3C166.658 20.3 166.862 20.356 167.046 20.468C167.23 20.58 167.378 20.732 167.49 20.924C167.602 21.108 167.658 21.308 167.658 21.524C167.658 21.852 167.538 22.136 167.298 22.376C167.058 22.616 166.77 22.736 166.434 22.736C166.226 22.736 166.026 22.68 165.834 22.568C165.65 22.456 165.498 22.308 165.378 22.124C165.266 21.94 165.21 21.74 165.21 21.524ZM174.749 20.492H184.937V22.052H174.749V20.492ZM138.332 35.524C138.332 35.308 138.388 35.108 138.5 34.924C138.62 34.732 138.772 34.58 138.956 34.468C139.148 34.356 139.348 34.3 139.556 34.3C139.78 34.3 139.984 34.356 140.168 34.468C140.352 34.58 140.5 34.732 140.612 34.924C140.724 35.108 140.78 35.308 140.78 35.524C140.78 35.852 140.66 36.136 140.42 36.376C140.18 36.616 139.892 36.736 139.556 36.736C139.348 36.736 139.148 36.68 138.956 36.568C138.772 36.456 138.62 36.308 138.5 36.124C138.388 35.94 138.332 35.74 138.332 35.524ZM147.871 34.492H158.059V36.052H147.871V34.492ZM165.21 35.524C165.21 35.308 165.266 35.108 165.378 34.924C165.498 34.732 165.65 34.58 165.834 34.468C166.026 34.356 166.226 34.3 166.434 34.3C166.658 34.3 166.862 34.356 167.046 34.468C167.23 34.58 167.378 34.732 167.49 34.924C167.602 35.108 167.658 35.308 167.658 35.524C167.658 35.852 167.538 36.136 167.298 36.376C167.058 36.616 166.77 36.736 166.434 36.736C166.226 36.736 166.026 36.68 165.834 36.568C165.65 36.456 165.498 36.308 165.378 36.124C165.266 35.94 165.21 35.74 165.21 35.524ZM138.332 49.524C138.332 49.308 138.388 49.108 138.5 48.924C138.62 48.732 138.772 48.58 138.956 48.468C139.148 48.356 139.348 48.3 139.556 48.3C139.78 48.3 139.984 48.356 140.168 48.468C140.352 48.58 140.5 48.732 140.612 48.924C140.724 49.108 140.78 49.308 140.78 49.524C140.78 49.852 140.66 50.136 140.42 50.376C140.18 50.616 139.892 50.736 139.556 50.736C139.348 50.736 139.148 50.68 138.956 50.568C138.772 50.456 138.62 50.308 138.5 50.124C138.388 49.94 138.332 49.74 138.332 49.524ZM151.771 49.524C151.771 49.308 151.827 49.108 151.939 48.924C152.059 48.732 152.211 48.58 152.395 48.468C152.587 48.356 152.787 48.3 152.995 48.3C153.219 48.3 153.423 48.356 153.607 48.468C153.791 48.58 153.939 48.732 154.051 48.924C154.163 49.108 154.219 49.308 154.219 49.524C154.219 49.852 154.099 50.136 153.859 50.376C153.619 50.616 153.331 50.736 152.995 50.736C152.787 50.736 152.587 50.68 152.395 50.568C152.211 50.456 152.059 50.308 151.939 50.124C151.827 49.94 151.771 49.74 151.771 49.524ZM165.21 49.524C165.21 49.308 165.266 49.108 165.378 48.924C165.498 48.732 165.65 48.58 165.834 48.468C166.026 48.356 166.226 48.3 166.434 48.3C166.658 48.3 166.862 48.356 167.046 48.468C167.23 48.58 167.378 48.732 167.49 48.924C167.602 49.108 167.658 49.308 167.658 49.524C167.658 49.852 167.538 50.136 167.298 50.376C167.058 50.616 166.77 50.736 166.434 50.736C166.226 50.736 166.026 50.68 165.834 50.568C165.65 50.456 165.498 50.308 165.378 50.124C165.266 49.94 165.21 49.74 165.21 49.524ZM134.432 62.492H144.62V64.052H134.432V62.492ZM138.332 77.524C138.332 77.308 138.388 77.108 138.5 76.924C138.62 76.732 138.772 76.58 138.956 76.468C139.148 76.356 139.348 76.3 139.556 76.3C139.78 76.3 139.984 76.356 140.168 76.468C140.352 76.58 140.5 76.732 140.612 76.924C140.724 77.108 140.78 77.308 140.78 77.524C140.78 77.852 140.66 78.136 140.42 78.376C140.18 78.616 139.892 78.736 139.556 78.736C139.348 78.736 139.148 78.68 138.956 78.568C138.772 78.456 138.62 78.308 138.5 78.124C138.388 77.94 138.332 77.74 138.332 77.524ZM151.771 77.524C151.771 77.308 151.827 77.108 151.939 76.924C152.059 76.732 152.211 76.58 152.395 76.468C152.587 76.356 152.787 76.3 152.995 76.3C153.219 76.3 153.423 76.356 153.607 76.468C153.791 76.58 153.939 76.732 154.051 76.924C154.163 77.108 154.219 77.308 154.219 77.524C154.219 77.852 154.099 78.136 153.859 78.376C153.619 78.616 153.331 78.736 152.995 78.736C152.787 78.736 152.587 78.68 152.395 78.568C152.211 78.456 152.059 78.308 151.939 78.124C151.827 77.94 151.771 77.74 151.771 77.524ZM161.31 76.492H171.498V78.052H161.31V76.492ZM138.332 91.524C138.332 91.308 138.388 91.108 138.5 90.924C138.62 90.732 138.772 90.58 138.956 90.468C139.148 90.356 139.348 90.3 139.556 90.3C139.78 90.3 139.984 90.356 140.168 90.468C140.352 90.58 140.5 90.732 140.612 90.924C140.724 91.108 140.78 91.308 140.78 91.524C140.78 91.852 140.66 92.136 140.42 92.376C140.18 92.616 139.892 92.736 139.556 92.736C139.348 92.736 139.148 92.68 138.956 92.568C138.772 92.456 138.62 92.308 138.5 92.124C138.388 91.94 138.332 91.74 138.332 91.524ZM151.771 91.524C151.771 91.308 151.827 91.108 151.939 90.924C152.059 90.732 152.211 90.58 152.395 90.468C152.587 90.356 152.787 90.3 152.995 90.3C153.219 90.3 153.423 90.356 153.607 90.468C153.791 90.58 153.939 90.732 154.051 90.924C154.163 91.108 154.219 91.308 154.219 91.524C154.219 91.852 154.099 92.136 153.859 92.376C153.619 92.616 153.331 92.736 152.995 92.736C152.787 92.736 152.587 92.68 152.395 92.568C152.211 92.456 152.059 92.308 151.939 92.124C151.827 91.94 151.771 91.74 151.771 91.524ZM165.21 91.524C165.21 91.308 165.266 91.108 165.378 90.924C165.498 90.732 165.65 90.58 165.834 90.468C166.026 90.356 166.226 90.3 166.434 90.3C166.658 90.3 166.862 90.356 167.046 90.468C167.23 90.58 167.378 90.732 167.49 90.924C167.602 91.108 167.658 91.308 167.658 91.524C167.658 91.852 167.538 92.136 167.298 92.376C167.058 92.616 166.77 92.736 166.434 92.736C166.226 92.736 166.026 92.68 165.834 92.568C165.65 92.456 165.498 92.308 165.378 92.124C165.266 91.94 165.21 91.74 165.21 91.524ZM174.749 90.492H184.937V92.052H174.749V90.492ZM138.332 105.524C138.332 105.308 138.388 105.108 138.5 104.924C138.62 104.732 138.772 104.58 138.956 104.468C139.148 104.356 139.348 104.3 139.556 104.3C139.78 104.3 139.984 104.356 140.168 104.468C140.352 104.58 140.5 104.732 140.612 104.924C140.724 105.108 140.78 105.308 140.78 105.524C140.78 105.852 140.66 106.136 140.42 106.376C140.18 106.616 139.892 106.736 139.556 106.736C139.348 106.736 139.148 106.68 138.956 106.568C138.772 106.456 138.62 106.308 138.5 106.124C138.388 105.94 138.332 105.74 138.332 105.524ZM147.871 104.492H158.059V106.052H147.871V104.492ZM161.31 104.492H171.498V106.052H161.31V104.492ZM134.432 118.492H144.62V120.052H134.432V118.492ZM151.771 119.524C151.771 119.308 151.827 119.108 151.939 118.924C152.059 118.732 152.211 118.58 152.395 118.468C152.587 118.356 152.787 118.3 152.995 118.3C153.219 118.3 153.423 118.356 153.607 118.468C153.791 118.58 153.939 118.732 154.051 118.924C154.163 119.108 154.219 119.308 154.219 119.524C154.219 119.852 154.099 120.136 153.859 120.376C153.619 120.616 153.331 120.736 152.995 120.736C152.787 120.736 152.587 120.68 152.395 120.568C152.211 120.456 152.059 120.308 151.939 120.124C151.827 119.94 151.771 119.74 151.771 119.524ZM165.21 119.524C165.21 119.308 165.266 119.108 165.378 118.924C165.498 118.732 165.65 118.58 165.834 118.468C166.026 118.356 166.226 118.3 166.434 118.3C166.658 118.3 166.862 118.356 167.046 118.468C167.23 118.58 167.378 118.732 167.49 118.924C167.602 119.108 167.658 119.308 167.658 119.524C167.658 119.852 167.538 120.136 167.298 120.376C167.058 120.616 166.77 120.736 166.434 120.736C166.226 120.736 166.026 120.68 165.834 120.568C165.65 120.456 165.498 120.308 165.378 120.124C165.266 119.94 165.21 119.74 165.21 119.524ZM174.749 118.492H184.937V120.052H174.749V118.492ZM134.432 132.492H144.62V134.052H134.432V132.492ZM151.771 133.524C151.771 133.308 151.827 133.108 151.939 132.924C152.059 132.732 152.211 132.58 152.395 132.468C152.587 132.356 152.787 132.3 152.995 132.3C153.219 132.3 153.423 132.356 153.607 132.468C153.791 132.58 153.939 132.732 154.051 132.924C154.163 133.108 154.219 133.308 154.219 133.524C154.219 133.852 154.099 134.136 153.859 134.376C153.619 134.616 153.331 134.736 152.995 134.736C152.787 134.736 152.587 134.68 152.395 134.568C152.211 134.456 152.059 134.308 151.939 134.124C151.827 133.94 151.771 133.74 151.771 133.524ZM161.31 132.492H171.498V134.052H161.31V132.492ZM174.749 132.492H184.937V134.052H174.749V132.492ZM134.432 146.492H144.62V148.052H134.432V146.492ZM147.871 146.492H158.059V148.052H147.871V146.492ZM165.21 147.524C165.21 147.308 165.266 147.108 165.378 146.924C165.498 146.732 165.65 146.58 165.834 146.468C166.026 146.356 166.226 146.3 166.434 146.3C166.658 146.3 166.862 146.356 167.046 146.468C167.23 146.58 167.378 146.732 167.49 146.924C167.602 147.108 167.658 147.308 167.658 147.524C167.658 147.852 167.538 148.136 167.298 148.376C167.058 148.616 166.77 148.736 166.434 148.736C166.226 148.736 166.026 148.68 165.834 148.568C165.65 148.456 165.498 148.308 165.378 148.124C165.266 147.94 165.21 147.74 165.21 147.524ZM178.649 147.524C178.649 147.308 178.705 147.108 178.817 146.924C178.937 146.732 179.089 146.58 179.273 146.468C179.465 146.356 179.665 146.3 179.873 146.3C180.097 146.3 180.301 146.356 180.485 146.468C180.669 146.58 180.817 146.732 180.929 146.924C181.041 147.108 181.097 147.308 181.097 147.524C181.097 147.852 180.977 148.136 180.737 148.376C180.497 148.616 180.209 148.736 179.873 148.736C179.665 148.736 179.465 148.68 179.273 148.568C179.089 148.456 178.937 148.308 178.817 148.124C178.705 147.94 178.649 147.74 178.649 147.524Z" fill="black"/>
</svg>
